<?xml version="1.0" encoding="utf-8"?>
<svg xmlns="http://www.w3.org/2000/svg" xmlns:xlink="http://www.w3.org/1999/xlink" width="528" height="336" viewBox="0 0 2112 1344">
<defs>
  <clipPath id="clip870">
    <rect x="0" y="0" width="2112" height="1344"/>
  </clipPath>
</defs>
<path clip-path="url(#clip870)" d="M0 1344 L2112 1344 L2112 0 L0 0  Z" fill="#ffffff" fill-rule="evenodd" fill-opacity="1"/>
<defs>
  <clipPath id="clip871">
    <rect x="422" y="0" width="1479" height="1344"/>
  </clipPath>
</defs>
<path clip-path="url(#clip870)" d="M282.326 1234.58 L2064.76 1234.58 L2064.76 120.723 L282.326 120.723  Z" fill="#ffffff" fill-rule="evenodd" fill-opacity="1"/>
<defs>
  <clipPath id="clip872">
    <rect x="282" y="120" width="1783" height="1115"/>
  </clipPath>
</defs>
<polyline clip-path="url(#clip872)" style="stroke:#000000; stroke-linecap:round; stroke-linejoin:round; stroke-width:2; stroke-opacity:0.1; fill:none" points="332.772,1234.58 332.772,120.723 "/>
<polyline clip-path="url(#clip872)" style="stroke:#000000; stroke-linecap:round; stroke-linejoin:round; stroke-width:2; stroke-opacity:0.1; fill:none" points="485.639,1234.58 485.639,120.723 "/>
<polyline clip-path="url(#clip872)" style="stroke:#000000; stroke-linecap:round; stroke-linejoin:round; stroke-width:2; stroke-opacity:0.1; fill:none" points="638.506,1234.58 638.506,120.723 "/>
<polyline clip-path="url(#clip872)" style="stroke:#000000; stroke-linecap:round; stroke-linejoin:round; stroke-width:2; stroke-opacity:0.1; fill:none" points="791.373,1234.58 791.373,120.723 "/>
<polyline clip-path="url(#clip872)" style="stroke:#000000; stroke-linecap:round; stroke-linejoin:round; stroke-width:2; stroke-opacity:0.1; fill:none" points="944.24,1234.58 944.24,120.723 "/>
<polyline clip-path="url(#clip872)" style="stroke:#000000; stroke-linecap:round; stroke-linejoin:round; stroke-width:2; stroke-opacity:0.1; fill:none" points="1097.11,1234.58 1097.11,120.723 "/>
<polyline clip-path="url(#clip872)" style="stroke:#000000; stroke-linecap:round; stroke-linejoin:round; stroke-width:2; stroke-opacity:0.1; fill:none" points="1249.97,1234.58 1249.97,120.723 "/>
<polyline clip-path="url(#clip872)" style="stroke:#000000; stroke-linecap:round; stroke-linejoin:round; stroke-width:2; stroke-opacity:0.1; fill:none" points="1402.84,1234.58 1402.84,120.723 "/>
<polyline clip-path="url(#clip872)" style="stroke:#000000; stroke-linecap:round; stroke-linejoin:round; stroke-width:2; stroke-opacity:0.1; fill:none" points="1555.71,1234.58 1555.71,120.723 "/>
<polyline clip-path="url(#clip872)" style="stroke:#000000; stroke-linecap:round; stroke-linejoin:round; stroke-width:2; stroke-opacity:0.1; fill:none" points="1708.58,1234.58 1708.58,120.723 "/>
<polyline clip-path="url(#clip872)" style="stroke:#000000; stroke-linecap:round; stroke-linejoin:round; stroke-width:2; stroke-opacity:0.1; fill:none" points="1861.44,1234.58 1861.44,120.723 "/>
<polyline clip-path="url(#clip872)" style="stroke:#000000; stroke-linecap:round; stroke-linejoin:round; stroke-width:2; stroke-opacity:0.1; fill:none" points="2014.31,1234.58 2014.31,120.723 "/>
<polyline clip-path="url(#clip870)" style="stroke:#000000; stroke-linecap:round; stroke-linejoin:round; stroke-width:4; stroke-opacity:1; fill:none" points="282.326,1234.58 2064.76,1234.58 "/>
<polyline clip-path="url(#clip870)" style="stroke:#000000; stroke-linecap:round; stroke-linejoin:round; stroke-width:4; stroke-opacity:1; fill:none" points="332.772,1234.58 332.772,1215.68 "/>
<polyline clip-path="url(#clip870)" style="stroke:#000000; stroke-linecap:round; stroke-linejoin:round; stroke-width:4; stroke-opacity:1; fill:none" points="485.639,1234.58 485.639,1215.68 "/>
<polyline clip-path="url(#clip870)" style="stroke:#000000; stroke-linecap:round; stroke-linejoin:round; stroke-width:4; stroke-opacity:1; fill:none" points="638.506,1234.58 638.506,1215.68 "/>
<polyline clip-path="url(#clip870)" style="stroke:#000000; stroke-linecap:round; stroke-linejoin:round; stroke-width:4; stroke-opacity:1; fill:none" points="791.373,1234.58 791.373,1215.68 "/>
<polyline clip-path="url(#clip870)" style="stroke:#000000; stroke-linecap:round; stroke-linejoin:round; stroke-width:4; stroke-opacity:1; fill:none" points="944.24,1234.58 944.24,1215.68 "/>
<polyline clip-path="url(#clip870)" style="stroke:#000000; stroke-linecap:round; stroke-linejoin:round; stroke-width:4; stroke-opacity:1; fill:none" points="1097.11,1234.58 1097.11,1215.68 "/>
<polyline clip-path="url(#clip870)" style="stroke:#000000; stroke-linecap:round; stroke-linejoin:round; stroke-width:4; stroke-opacity:1; fill:none" points="1249.97,1234.58 1249.97,1215.68 "/>
<polyline clip-path="url(#clip870)" style="stroke:#000000; stroke-linecap:round; stroke-linejoin:round; stroke-width:4; stroke-opacity:1; fill:none" points="1402.84,1234.58 1402.84,1215.68 "/>
<polyline clip-path="url(#clip870)" style="stroke:#000000; stroke-linecap:round; stroke-linejoin:round; stroke-width:4; stroke-opacity:1; fill:none" points="1555.71,1234.58 1555.71,1215.68 "/>
<polyline clip-path="url(#clip870)" style="stroke:#000000; stroke-linecap:round; stroke-linejoin:round; stroke-width:4; stroke-opacity:1; fill:none" points="1708.58,1234.58 1708.58,1215.68 "/>
<polyline clip-path="url(#clip870)" style="stroke:#000000; stroke-linecap:round; stroke-linejoin:round; stroke-width:4; stroke-opacity:1; fill:none" points="1861.44,1234.58 1861.44,1215.68 "/>
<polyline clip-path="url(#clip870)" style="stroke:#000000; stroke-linecap:round; stroke-linejoin:round; stroke-width:4; stroke-opacity:1; fill:none" points="2014.31,1234.58 2014.31,1215.68 "/>
<path clip-path="url(#clip870)" d="M323.154 1290.74 L330.793 1290.74 L330.793 1264.37 L322.483 1266.04 L322.483 1261.78 L330.747 1260.11 L335.422 1260.11 L335.422 1290.74 L343.061 1290.74 L343.061 1294.67 L323.154 1294.67 L323.154 1290.74 Z" fill="#000000" fill-rule="nonzero" fill-opacity="1" /><path clip-path="url(#clip870)" d="M480.292 1290.74 L496.611 1290.74 L496.611 1294.67 L474.667 1294.67 L474.667 1290.74 Q477.329 1287.99 481.912 1283.36 Q486.519 1278.7 487.699 1277.36 Q489.945 1274.84 490.824 1273.1 Q491.727 1271.34 491.727 1269.65 Q491.727 1266.9 489.783 1265.16 Q487.861 1263.42 484.759 1263.42 Q482.56 1263.42 480.107 1264.19 Q477.676 1264.95 474.898 1266.5 L474.898 1261.78 Q477.722 1260.65 480.176 1260.07 Q482.63 1259.49 484.667 1259.49 Q490.037 1259.49 493.232 1262.17 Q496.426 1264.86 496.426 1269.35 Q496.426 1271.48 495.616 1273.4 Q494.829 1275.3 492.722 1277.89 Q492.144 1278.56 489.042 1281.78 Q485.94 1284.98 480.292 1290.74 Z" fill="#000000" fill-rule="nonzero" fill-opacity="1" /><path clip-path="url(#clip870)" d="M642.754 1276.04 Q646.11 1276.76 647.985 1279.03 Q649.883 1281.3 649.883 1284.63 Q649.883 1289.74 646.365 1292.55 Q642.846 1295.35 636.365 1295.35 Q634.189 1295.35 631.874 1294.91 Q629.583 1294.49 627.129 1293.63 L627.129 1289.12 Q629.073 1290.25 631.388 1290.83 Q633.703 1291.41 636.226 1291.41 Q640.624 1291.41 642.916 1289.67 Q645.231 1287.94 645.231 1284.63 Q645.231 1281.57 643.078 1279.86 Q640.948 1278.12 637.129 1278.12 L633.101 1278.12 L633.101 1274.28 L637.314 1274.28 Q640.763 1274.28 642.592 1272.92 Q644.42 1271.53 644.42 1268.93 Q644.42 1266.27 642.522 1264.86 Q640.647 1263.42 637.129 1263.42 Q635.208 1263.42 633.009 1263.84 Q630.809 1264.26 628.171 1265.14 L628.171 1260.97 Q630.833 1260.23 633.147 1259.86 Q635.485 1259.49 637.546 1259.49 Q642.87 1259.49 645.971 1261.92 Q649.073 1264.33 649.073 1268.45 Q649.073 1271.32 647.43 1273.31 Q645.786 1275.28 642.754 1276.04 Z" fill="#000000" fill-rule="nonzero" fill-opacity="1" /><path clip-path="url(#clip870)" d="M794.382 1264.19 L782.577 1282.64 L794.382 1282.64 L794.382 1264.19 M793.156 1260.11 L799.035 1260.11 L799.035 1282.64 L803.966 1282.64 L803.966 1286.53 L799.035 1286.53 L799.035 1294.67 L794.382 1294.67 L794.382 1286.53 L778.781 1286.53 L778.781 1282.01 L793.156 1260.11 Z" fill="#000000" fill-rule="nonzero" fill-opacity="1" /><path clip-path="url(#clip870)" d="M934.518 1260.11 L952.875 1260.11 L952.875 1264.05 L938.801 1264.05 L938.801 1272.52 Q939.819 1272.17 940.838 1272.01 Q941.856 1271.83 942.875 1271.83 Q948.662 1271.83 952.041 1275 Q955.421 1278.17 955.421 1283.59 Q955.421 1289.17 951.949 1292.27 Q948.476 1295.35 942.157 1295.35 Q939.981 1295.35 937.713 1294.98 Q935.467 1294.61 933.06 1293.86 L933.06 1289.17 Q935.143 1290.3 937.365 1290.86 Q939.588 1291.41 942.064 1291.41 Q946.069 1291.41 948.407 1289.3 Q950.745 1287.2 950.745 1283.59 Q950.745 1279.98 948.407 1277.87 Q946.069 1275.76 942.064 1275.76 Q940.189 1275.76 938.314 1276.18 Q936.463 1276.6 934.518 1277.48 L934.518 1260.11 Z" fill="#000000" fill-rule="nonzero" fill-opacity="1" /><path clip-path="url(#clip870)" d="M1097.51 1275.53 Q1094.36 1275.53 1092.51 1277.68 Q1090.68 1279.84 1090.68 1283.59 Q1090.68 1287.31 1092.51 1289.49 Q1094.36 1291.64 1097.51 1291.64 Q1100.66 1291.64 1102.49 1289.49 Q1104.34 1287.31 1104.34 1283.59 Q1104.34 1279.84 1102.49 1277.68 Q1100.66 1275.53 1097.51 1275.53 M1106.79 1260.88 L1106.79 1265.14 Q1105.04 1264.3 1103.23 1263.86 Q1101.45 1263.42 1099.69 1263.42 Q1095.06 1263.42 1092.61 1266.55 Q1090.17 1269.67 1089.83 1275.99 Q1091.19 1273.98 1093.25 1272.92 Q1095.31 1271.83 1097.79 1271.83 Q1103 1271.83 1106.01 1275 Q1109.04 1278.15 1109.04 1283.59 Q1109.04 1288.91 1105.89 1292.13 Q1102.74 1295.35 1097.51 1295.35 Q1091.52 1295.35 1088.35 1290.76 Q1085.17 1286.16 1085.17 1277.43 Q1085.17 1269.24 1089.06 1264.37 Q1092.95 1259.49 1099.5 1259.49 Q1101.26 1259.49 1103.04 1259.84 Q1104.85 1260.18 1106.79 1260.88 Z" fill="#000000" fill-rule="nonzero" fill-opacity="1" /><path clip-path="url(#clip870)" d="M1238.86 1260.11 L1261.09 1260.11 L1261.09 1262.11 L1248.54 1294.67 L1243.66 1294.67 L1255.46 1264.05 L1238.86 1264.05 L1238.86 1260.11 Z" fill="#000000" fill-rule="nonzero" fill-opacity="1" /><path clip-path="url(#clip870)" d="M1402.84 1278.26 Q1399.51 1278.26 1397.59 1280.05 Q1395.69 1281.83 1395.69 1284.95 Q1395.69 1288.08 1397.59 1289.86 Q1399.51 1291.64 1402.84 1291.64 Q1406.17 1291.64 1408.1 1289.86 Q1410.02 1288.05 1410.02 1284.95 Q1410.02 1281.83 1408.1 1280.05 Q1406.2 1278.26 1402.84 1278.26 M1398.17 1276.27 Q1395.16 1275.53 1393.47 1273.47 Q1391.8 1271.41 1391.8 1268.45 Q1391.8 1264.3 1394.74 1261.9 Q1397.7 1259.49 1402.84 1259.49 Q1408 1259.49 1410.94 1261.9 Q1413.88 1264.3 1413.88 1268.45 Q1413.88 1271.41 1412.19 1273.47 Q1410.53 1275.53 1407.54 1276.27 Q1410.92 1277.06 1412.8 1279.35 Q1414.69 1281.64 1414.69 1284.95 Q1414.69 1289.98 1411.61 1292.66 Q1408.56 1295.35 1402.84 1295.35 Q1397.12 1295.35 1394.05 1292.66 Q1390.99 1289.98 1390.99 1284.95 Q1390.99 1281.64 1392.89 1279.35 Q1394.79 1277.06 1398.17 1276.27 M1396.45 1268.89 Q1396.45 1271.57 1398.12 1273.08 Q1399.81 1274.58 1402.84 1274.58 Q1405.85 1274.58 1407.54 1273.08 Q1409.25 1271.57 1409.25 1268.89 Q1409.25 1266.2 1407.54 1264.7 Q1405.85 1263.19 1402.84 1263.19 Q1399.81 1263.19 1398.12 1264.7 Q1396.45 1266.2 1396.45 1268.89 Z" fill="#000000" fill-rule="nonzero" fill-opacity="1" /><path clip-path="url(#clip870)" d="M1546.01 1293.96 L1546.01 1289.7 Q1547.77 1290.53 1549.57 1290.97 Q1551.38 1291.41 1553.12 1291.41 Q1557.75 1291.41 1560.18 1288.31 Q1562.63 1285.18 1562.98 1278.84 Q1561.63 1280.83 1559.57 1281.9 Q1557.51 1282.96 1555.01 1282.96 Q1549.83 1282.96 1546.8 1279.84 Q1543.79 1276.69 1543.79 1271.25 Q1543.79 1265.92 1546.94 1262.71 Q1550.08 1259.49 1555.32 1259.49 Q1561.31 1259.49 1564.46 1264.1 Q1567.63 1268.68 1567.63 1277.43 Q1567.63 1285.6 1563.74 1290.48 Q1559.88 1295.35 1553.32 1295.35 Q1551.57 1295.35 1549.76 1295 Q1547.95 1294.65 1546.01 1293.96 M1555.32 1279.3 Q1558.46 1279.3 1560.29 1277.15 Q1562.14 1275 1562.14 1271.25 Q1562.14 1267.52 1560.29 1265.37 Q1558.46 1263.19 1555.32 1263.19 Q1552.17 1263.19 1550.32 1265.37 Q1548.49 1267.52 1548.49 1271.25 Q1548.49 1275 1550.32 1277.15 Q1552.17 1279.3 1555.32 1279.3 Z" fill="#000000" fill-rule="nonzero" fill-opacity="1" /><path clip-path="url(#clip870)" d="M1683.26 1290.74 L1690.9 1290.74 L1690.9 1264.37 L1682.59 1266.04 L1682.59 1261.78 L1690.86 1260.11 L1695.53 1260.11 L1695.53 1290.74 L1703.17 1290.74 L1703.17 1294.67 L1683.26 1294.67 L1683.26 1290.74 Z" fill="#000000" fill-rule="nonzero" fill-opacity="1" /><path clip-path="url(#clip870)" d="M1722.61 1263.19 Q1719 1263.19 1717.18 1266.76 Q1715.37 1270.3 1715.37 1277.43 Q1715.37 1284.54 1717.18 1288.1 Q1719 1291.64 1722.61 1291.64 Q1726.25 1291.64 1728.05 1288.1 Q1729.88 1284.54 1729.88 1277.43 Q1729.88 1270.3 1728.05 1266.76 Q1726.25 1263.19 1722.61 1263.19 M1722.61 1259.49 Q1728.43 1259.49 1731.48 1264.1 Q1734.56 1268.68 1734.56 1277.43 Q1734.56 1286.16 1731.48 1290.76 Q1728.43 1295.35 1722.61 1295.35 Q1716.8 1295.35 1713.73 1290.76 Q1710.67 1286.16 1710.67 1277.43 Q1710.67 1268.68 1713.73 1264.1 Q1716.8 1259.49 1722.61 1259.49 Z" fill="#000000" fill-rule="nonzero" fill-opacity="1" /><path clip-path="url(#clip870)" d="M1836.74 1290.74 L1844.38 1290.74 L1844.38 1264.37 L1836.07 1266.04 L1836.07 1261.78 L1844.34 1260.11 L1849.01 1260.11 L1849.01 1290.74 L1856.65 1290.74 L1856.65 1294.67 L1836.74 1294.67 L1836.74 1290.74 Z" fill="#000000" fill-rule="nonzero" fill-opacity="1" /><path clip-path="url(#clip870)" d="M1866.91 1290.74 L1874.54 1290.74 L1874.54 1264.37 L1866.23 1266.04 L1866.23 1261.78 L1874.5 1260.11 L1879.17 1260.11 L1879.17 1290.74 L1886.81 1290.74 L1886.81 1294.67 L1866.91 1294.67 L1866.91 1290.74 Z" fill="#000000" fill-rule="nonzero" fill-opacity="1" /><path clip-path="url(#clip870)" d="M1989.8 1290.74 L1997.43 1290.74 L1997.43 1264.37 L1989.12 1266.04 L1989.12 1261.78 L1997.39 1260.11 L2002.06 1260.11 L2002.06 1290.74 L2009.7 1290.74 L2009.7 1294.67 L1989.8 1294.67 L1989.8 1290.74 Z" fill="#000000" fill-rule="nonzero" fill-opacity="1" /><path clip-path="url(#clip870)" d="M2023.18 1290.74 L2039.49 1290.74 L2039.49 1294.67 L2017.55 1294.67 L2017.55 1290.74 Q2020.21 1287.99 2024.8 1283.36 Q2029.4 1278.7 2030.58 1277.36 Q2032.83 1274.84 2033.71 1273.1 Q2034.61 1271.34 2034.61 1269.65 Q2034.61 1266.9 2032.67 1265.16 Q2030.74 1263.42 2027.64 1263.42 Q2025.44 1263.42 2022.99 1264.19 Q2020.56 1264.95 2017.78 1266.5 L2017.78 1261.78 Q2020.61 1260.65 2023.06 1260.07 Q2025.51 1259.49 2027.55 1259.49 Q2032.92 1259.49 2036.12 1262.17 Q2039.31 1264.86 2039.31 1269.35 Q2039.31 1271.48 2038.5 1273.4 Q2037.71 1275.3 2035.61 1277.89 Q2035.03 1278.56 2031.93 1281.78 Q2028.82 1284.98 2023.18 1290.74 Z" fill="#000000" fill-rule="nonzero" fill-opacity="1" /><polyline clip-path="url(#clip872)" style="stroke:#000000; stroke-linecap:round; stroke-linejoin:round; stroke-width:2; stroke-opacity:0.1; fill:none" points="282.326,1015.69 2064.76,1015.69 "/>
<polyline clip-path="url(#clip872)" style="stroke:#000000; stroke-linecap:round; stroke-linejoin:round; stroke-width:2; stroke-opacity:0.1; fill:none" points="282.326,744.174 2064.76,744.174 "/>
<polyline clip-path="url(#clip872)" style="stroke:#000000; stroke-linecap:round; stroke-linejoin:round; stroke-width:2; stroke-opacity:0.1; fill:none" points="282.326,472.654 2064.76,472.654 "/>
<polyline clip-path="url(#clip872)" style="stroke:#000000; stroke-linecap:round; stroke-linejoin:round; stroke-width:2; stroke-opacity:0.1; fill:none" points="282.326,201.135 2064.76,201.135 "/>
<polyline clip-path="url(#clip870)" style="stroke:#000000; stroke-linecap:round; stroke-linejoin:round; stroke-width:4; stroke-opacity:1; fill:none" points="282.326,1234.58 282.326,120.723 "/>
<polyline clip-path="url(#clip870)" style="stroke:#000000; stroke-linecap:round; stroke-linejoin:round; stroke-width:4; stroke-opacity:1; fill:none" points="282.326,1015.69 301.224,1015.69 "/>
<polyline clip-path="url(#clip870)" style="stroke:#000000; stroke-linecap:round; stroke-linejoin:round; stroke-width:4; stroke-opacity:1; fill:none" points="282.326,744.174 301.224,744.174 "/>
<polyline clip-path="url(#clip870)" style="stroke:#000000; stroke-linecap:round; stroke-linejoin:round; stroke-width:4; stroke-opacity:1; fill:none" points="282.326,472.654 301.224,472.654 "/>
<polyline clip-path="url(#clip870)" style="stroke:#000000; stroke-linecap:round; stroke-linejoin:round; stroke-width:4; stroke-opacity:1; fill:none" points="282.326,201.135 301.224,201.135 "/>
<path clip-path="url(#clip870)" d="M113.54 1016.15 L143.216 1016.15 L143.216 1020.08 L113.54 1020.08 L113.54 1016.15 Z" fill="#000000" fill-rule="nonzero" fill-opacity="1" /><path clip-path="url(#clip870)" d="M163.308 1001.49 Q159.697 1001.49 157.869 1005.06 Q156.063 1008.6 156.063 1015.73 Q156.063 1022.84 157.869 1026.4 Q159.697 1029.94 163.308 1029.94 Q166.943 1029.94 168.748 1026.4 Q170.577 1022.84 170.577 1015.73 Q170.577 1008.6 168.748 1005.06 Q166.943 1001.49 163.308 1001.49 M163.308 997.789 Q169.119 997.789 172.174 1002.4 Q175.253 1006.98 175.253 1015.73 Q175.253 1024.46 172.174 1029.06 Q169.119 1033.65 163.308 1033.65 Q157.498 1033.65 154.42 1029.06 Q151.364 1024.46 151.364 1015.73 Q151.364 1006.98 154.42 1002.4 Q157.498 997.789 163.308 997.789 Z" fill="#000000" fill-rule="nonzero" fill-opacity="1" /><path clip-path="url(#clip870)" d="M183.47 1027.09 L188.355 1027.09 L188.355 1032.97 L183.47 1032.97 L183.47 1027.09 Z" fill="#000000" fill-rule="nonzero" fill-opacity="1" /><path clip-path="url(#clip870)" d="M202.567 1029.04 L218.887 1029.04 L218.887 1032.97 L196.942 1032.97 L196.942 1029.04 Q199.605 1026.28 204.188 1021.65 Q208.794 1017 209.975 1015.66 Q212.22 1013.14 213.1 1011.4 Q214.003 1009.64 214.003 1007.95 Q214.003 1005.2 212.058 1003.46 Q210.137 1001.72 207.035 1001.72 Q204.836 1001.72 202.382 1002.49 Q199.952 1003.25 197.174 1004.8 L197.174 1000.08 Q199.998 998.946 202.452 998.368 Q204.905 997.789 206.942 997.789 Q212.313 997.789 215.507 1000.47 Q218.702 1003.16 218.702 1007.65 Q218.702 1009.78 217.891 1011.7 Q217.104 1013.6 214.998 1016.19 Q214.419 1016.86 211.317 1020.08 Q208.216 1023.27 202.567 1029.04 Z" fill="#000000" fill-rule="nonzero" fill-opacity="1" /><path clip-path="url(#clip870)" d="M238.702 1001.49 Q235.09 1001.49 233.262 1005.06 Q231.456 1008.6 231.456 1015.73 Q231.456 1022.84 233.262 1026.4 Q235.09 1029.94 238.702 1029.94 Q242.336 1029.94 244.141 1026.4 Q245.97 1022.84 245.97 1015.73 Q245.97 1008.6 244.141 1005.06 Q242.336 1001.49 238.702 1001.49 M238.702 997.789 Q244.512 997.789 247.567 1002.4 Q250.646 1006.98 250.646 1015.73 Q250.646 1024.46 247.567 1029.06 Q244.512 1033.65 238.702 1033.65 Q232.891 1033.65 229.813 1029.06 Q226.757 1024.46 226.757 1015.73 Q226.757 1006.98 229.813 1002.4 Q232.891 997.789 238.702 997.789 Z" fill="#000000" fill-rule="nonzero" fill-opacity="1" /><path clip-path="url(#clip870)" d="M114.536 744.626 L144.211 744.626 L144.211 748.561 L114.536 748.561 L114.536 744.626 Z" fill="#000000" fill-rule="nonzero" fill-opacity="1" /><path clip-path="url(#clip870)" d="M164.304 729.973 Q160.693 729.973 158.864 733.538 Q157.058 737.079 157.058 744.209 Q157.058 751.315 158.864 754.88 Q160.693 758.422 164.304 758.422 Q167.938 758.422 169.744 754.88 Q171.572 751.315 171.572 744.209 Q171.572 737.079 169.744 733.538 Q167.938 729.973 164.304 729.973 M164.304 726.269 Q170.114 726.269 173.169 730.876 Q176.248 735.459 176.248 744.209 Q176.248 752.936 173.169 757.542 Q170.114 762.126 164.304 762.126 Q158.494 762.126 155.415 757.542 Q152.359 752.936 152.359 744.209 Q152.359 735.459 155.415 730.876 Q158.494 726.269 164.304 726.269 Z" fill="#000000" fill-rule="nonzero" fill-opacity="1" /><path clip-path="url(#clip870)" d="M184.466 755.575 L189.35 755.575 L189.35 761.454 L184.466 761.454 L184.466 755.575 Z" fill="#000000" fill-rule="nonzero" fill-opacity="1" /><path clip-path="url(#clip870)" d="M200.345 757.519 L207.984 757.519 L207.984 731.153 L199.674 732.82 L199.674 728.561 L207.938 726.894 L212.614 726.894 L212.614 757.519 L220.253 757.519 L220.253 761.454 L200.345 761.454 L200.345 757.519 Z" fill="#000000" fill-rule="nonzero" fill-opacity="1" /><path clip-path="url(#clip870)" d="M229.743 726.894 L248.1 726.894 L248.1 730.829 L234.026 730.829 L234.026 739.302 Q235.044 738.954 236.063 738.792 Q237.081 738.607 238.1 738.607 Q243.887 738.607 247.266 741.778 Q250.646 744.95 250.646 750.366 Q250.646 755.945 247.174 759.047 Q243.701 762.126 237.382 762.126 Q235.206 762.126 232.938 761.755 Q230.692 761.385 228.285 760.644 L228.285 755.945 Q230.368 757.079 232.59 757.635 Q234.813 758.19 237.289 758.19 Q241.294 758.19 243.632 756.084 Q245.97 753.977 245.97 750.366 Q245.97 746.755 243.632 744.649 Q241.294 742.542 237.289 742.542 Q235.415 742.542 233.54 742.959 Q231.688 743.376 229.743 744.255 L229.743 726.894 Z" fill="#000000" fill-rule="nonzero" fill-opacity="1" /><path clip-path="url(#clip870)" d="M113.54 473.106 L143.216 473.106 L143.216 477.041 L113.54 477.041 L113.54 473.106 Z" fill="#000000" fill-rule="nonzero" fill-opacity="1" /><path clip-path="url(#clip870)" d="M163.308 458.453 Q159.697 458.453 157.869 462.018 Q156.063 465.56 156.063 472.689 Q156.063 479.796 157.869 483.36 Q159.697 486.902 163.308 486.902 Q166.943 486.902 168.748 483.36 Q170.577 479.796 170.577 472.689 Q170.577 465.56 168.748 462.018 Q166.943 458.453 163.308 458.453 M163.308 454.749 Q169.119 454.749 172.174 459.356 Q175.253 463.939 175.253 472.689 Q175.253 481.416 172.174 486.022 Q169.119 490.606 163.308 490.606 Q157.498 490.606 154.42 486.022 Q151.364 481.416 151.364 472.689 Q151.364 463.939 154.42 459.356 Q157.498 454.749 163.308 454.749 Z" fill="#000000" fill-rule="nonzero" fill-opacity="1" /><path clip-path="url(#clip870)" d="M183.47 484.055 L188.355 484.055 L188.355 489.934 L183.47 489.934 L183.47 484.055 Z" fill="#000000" fill-rule="nonzero" fill-opacity="1" /><path clip-path="url(#clip870)" d="M199.35 485.999 L206.989 485.999 L206.989 459.634 L198.679 461.3 L198.679 457.041 L206.942 455.374 L211.618 455.374 L211.618 485.999 L219.257 485.999 L219.257 489.934 L199.35 489.934 L199.35 485.999 Z" fill="#000000" fill-rule="nonzero" fill-opacity="1" /><path clip-path="url(#clip870)" d="M238.702 458.453 Q235.09 458.453 233.262 462.018 Q231.456 465.56 231.456 472.689 Q231.456 479.796 233.262 483.36 Q235.09 486.902 238.702 486.902 Q242.336 486.902 244.141 483.36 Q245.97 479.796 245.97 472.689 Q245.97 465.56 244.141 462.018 Q242.336 458.453 238.702 458.453 M238.702 454.749 Q244.512 454.749 247.567 459.356 Q250.646 463.939 250.646 472.689 Q250.646 481.416 247.567 486.022 Q244.512 490.606 238.702 490.606 Q232.891 490.606 229.813 486.022 Q226.757 481.416 226.757 472.689 Q226.757 463.939 229.813 459.356 Q232.891 454.749 238.702 454.749 Z" fill="#000000" fill-rule="nonzero" fill-opacity="1" /><path clip-path="url(#clip870)" d="M114.536 201.586 L144.211 201.586 L144.211 205.521 L114.536 205.521 L114.536 201.586 Z" fill="#000000" fill-rule="nonzero" fill-opacity="1" /><path clip-path="url(#clip870)" d="M164.304 186.933 Q160.693 186.933 158.864 190.498 Q157.058 194.04 157.058 201.169 Q157.058 208.276 158.864 211.841 Q160.693 215.382 164.304 215.382 Q167.938 215.382 169.744 211.841 Q171.572 208.276 171.572 201.169 Q171.572 194.04 169.744 190.498 Q167.938 186.933 164.304 186.933 M164.304 183.23 Q170.114 183.23 173.169 187.836 Q176.248 192.42 176.248 201.169 Q176.248 209.896 173.169 214.503 Q170.114 219.086 164.304 219.086 Q158.494 219.086 155.415 214.503 Q152.359 209.896 152.359 201.169 Q152.359 192.42 155.415 187.836 Q158.494 183.23 164.304 183.23 Z" fill="#000000" fill-rule="nonzero" fill-opacity="1" /><path clip-path="url(#clip870)" d="M184.466 212.535 L189.35 212.535 L189.35 218.415 L184.466 218.415 L184.466 212.535 Z" fill="#000000" fill-rule="nonzero" fill-opacity="1" /><path clip-path="url(#clip870)" d="M209.535 186.933 Q205.924 186.933 204.095 190.498 Q202.29 194.04 202.29 201.169 Q202.29 208.276 204.095 211.841 Q205.924 215.382 209.535 215.382 Q213.169 215.382 214.975 211.841 Q216.803 208.276 216.803 201.169 Q216.803 194.04 214.975 190.498 Q213.169 186.933 209.535 186.933 M209.535 183.23 Q215.345 183.23 218.401 187.836 Q221.479 192.42 221.479 201.169 Q221.479 209.896 218.401 214.503 Q215.345 219.086 209.535 219.086 Q203.725 219.086 200.646 214.503 Q197.591 209.896 197.591 201.169 Q197.591 192.42 200.646 187.836 Q203.725 183.23 209.535 183.23 Z" fill="#000000" fill-rule="nonzero" fill-opacity="1" /><path clip-path="url(#clip870)" d="M229.743 183.855 L248.1 183.855 L248.1 187.79 L234.026 187.79 L234.026 196.262 Q235.044 195.915 236.063 195.753 Q237.081 195.568 238.1 195.568 Q243.887 195.568 247.266 198.739 Q250.646 201.91 250.646 207.327 Q250.646 212.906 247.174 216.007 Q243.701 219.086 237.382 219.086 Q235.206 219.086 232.938 218.716 Q230.692 218.345 228.285 217.605 L228.285 212.906 Q230.368 214.04 232.59 214.595 Q234.813 215.151 237.289 215.151 Q241.294 215.151 243.632 213.044 Q245.97 210.938 245.97 207.327 Q245.97 203.716 243.632 201.609 Q241.294 199.503 237.289 199.503 Q235.415 199.503 233.54 199.919 Q231.688 200.336 229.743 201.216 L229.743 183.855 Z" fill="#000000" fill-rule="nonzero" fill-opacity="1" /><path clip-path="url(#clip870)" d="M38.7993 675.693 Q34.8526 673.497 32.9747 670.442 Q31.0968 667.386 31.0968 663.248 Q31.0968 657.679 35.0117 654.655 Q38.8948 651.631 46.0881 651.631 L67.6042 651.631 L67.6042 657.519 L46.279 657.519 Q41.1546 657.519 38.672 659.334 Q36.1894 661.148 36.1894 664.872 Q36.1894 669.423 39.2131 672.065 Q42.2368 674.707 47.4567 674.707 L67.6042 674.707 L67.6042 680.595 L46.279 680.595 Q41.1228 680.595 38.672 682.409 Q36.1894 684.224 36.1894 688.011 Q36.1894 692.499 39.2449 695.141 Q42.2686 697.782 47.4567 697.782 L67.6042 697.782 L67.6042 703.671 L31.9562 703.671 L31.9562 697.782 L37.4944 697.782 Q34.216 695.777 32.6564 692.976 Q31.0968 690.175 31.0968 686.324 Q31.0968 682.441 33.0702 679.736 Q35.0436 676.998 38.7993 675.693 Z" fill="#000000" fill-rule="nonzero" fill-opacity="1" /><path clip-path="url(#clip870)" d="M744.307 12.096 L756.5 12.096 L771.934 53.2532 L787.449 12.096 L799.642 12.096 L799.642 72.576 L791.662 72.576 L791.662 19.4686 L776.066 60.9499 L767.843 60.9499 L752.247 19.4686 L752.247 72.576 L744.307 72.576 L744.307 12.096 Z" fill="#000000" fill-rule="nonzero" fill-opacity="1" /><path clip-path="url(#clip870)" d="M833.143 32.4315 Q827.148 32.4315 823.664 37.1306 Q820.181 41.7891 820.181 49.9314 Q820.181 58.0738 823.624 62.7728 Q827.108 67.4314 833.143 67.4314 Q839.098 67.4314 842.582 62.7323 Q846.066 58.0333 846.066 49.9314 Q846.066 41.8701 842.582 37.1711 Q839.098 32.4315 833.143 32.4315 M833.143 26.1121 Q842.866 26.1121 848.415 32.4315 Q853.965 38.7509 853.965 49.9314 Q853.965 61.0714 848.415 67.4314 Q842.866 73.7508 833.143 73.7508 Q823.381 73.7508 817.831 67.4314 Q812.322 61.0714 812.322 49.9314 Q812.322 38.7509 817.831 32.4315 Q823.381 26.1121 833.143 26.1121 Z" fill="#000000" fill-rule="nonzero" fill-opacity="1" /><path clip-path="url(#clip870)" d="M904.034 45.1919 L904.034 72.576 L896.581 72.576 L896.581 45.4349 Q896.581 38.994 894.069 35.7938 Q891.557 32.5936 886.534 32.5936 Q880.498 32.5936 877.015 36.4419 Q873.531 40.2903 873.531 46.9338 L873.531 72.576 L866.037 72.576 L866.037 27.2059 L873.531 27.2059 L873.531 34.2544 Q876.205 30.163 879.81 28.1376 Q883.456 26.1121 888.195 26.1121 Q896.013 26.1121 900.024 30.9732 Q904.034 35.7938 904.034 45.1919 Z" fill="#000000" fill-rule="nonzero" fill-opacity="1" /><path clip-path="url(#clip870)" d="M926.274 14.324 L926.274 27.2059 L941.627 27.2059 L941.627 32.9987 L926.274 32.9987 L926.274 57.6282 Q926.274 63.1779 927.773 64.7578 Q929.312 66.3376 933.97 66.3376 L941.627 66.3376 L941.627 72.576 L933.97 72.576 Q925.342 72.576 922.061 69.3758 Q918.78 66.1351 918.78 57.6282 L918.78 32.9987 L913.311 32.9987 L913.311 27.2059 L918.78 27.2059 L918.78 14.324 L926.274 14.324 Z" fill="#000000" fill-rule="nonzero" fill-opacity="1" /><path clip-path="url(#clip870)" d="M989.144 45.1919 L989.144 72.576 L981.69 72.576 L981.69 45.4349 Q981.69 38.994 979.179 35.7938 Q976.667 32.5936 971.644 32.5936 Q965.608 32.5936 962.124 36.4419 Q958.64 40.2903 958.64 46.9338 L958.64 72.576 L951.146 72.576 L951.146 9.54393 L958.64 9.54393 L958.64 34.2544 Q961.314 30.163 964.919 28.1376 Q968.565 26.1121 973.305 26.1121 Q981.123 26.1121 985.133 30.9732 Q989.144 35.7938 989.144 45.1919 Z" fill="#000000" fill-rule="nonzero" fill-opacity="1" /><path clip-path="url(#clip870)" d="M1004.01 9.54393 L1011.46 9.54393 L1011.46 72.576 L1004.01 72.576 L1004.01 9.54393 Z" fill="#000000" fill-rule="nonzero" fill-opacity="1" /><path clip-path="url(#clip870)" d="M1045.94 76.7889 Q1042.78 84.8907 1039.78 87.3618 Q1036.78 89.8329 1031.76 89.8329 L1025.8 89.8329 L1025.8 83.5945 L1030.18 83.5945 Q1033.26 83.5945 1034.96 82.1361 Q1036.66 80.6778 1038.73 75.2496 L1040.06 71.8468 L1021.71 27.2059 L1029.61 27.2059 L1043.79 62.6918 L1057.97 27.2059 L1065.87 27.2059 L1045.94 76.7889 Z" fill="#000000" fill-rule="nonzero" fill-opacity="1" /><path clip-path="url(#clip870)" d="M1097.46 12.096 L1105.73 12.096 L1118.45 63.2184 L1131.13 12.096 L1140.32 12.096 L1153.04 63.2184 L1165.72 12.096 L1174.03 12.096 L1158.84 72.576 L1148.55 72.576 L1135.79 20.0763 L1122.9 72.576 L1112.62 72.576 L1097.46 12.096 Z" fill="#000000" fill-rule="nonzero" fill-opacity="1" /><path clip-path="url(#clip870)" d="M1199.87 49.7694 Q1190.84 49.7694 1187.35 51.8354 Q1183.87 53.9013 1183.87 58.8839 Q1183.87 62.8538 1186.46 65.2034 Q1189.1 67.5124 1193.59 67.5124 Q1199.79 67.5124 1203.52 63.1374 Q1207.28 58.7219 1207.28 51.4303 L1207.28 49.7694 L1199.87 49.7694 M1214.74 46.6907 L1214.74 72.576 L1207.28 72.576 L1207.28 65.6895 Q1204.73 69.8214 1200.93 71.8063 Q1197.12 73.7508 1191.61 73.7508 Q1184.64 73.7508 1180.51 69.8619 Q1176.42 65.9325 1176.42 59.3701 Q1176.42 51.7138 1181.52 47.825 Q1186.67 43.9361 1196.83 43.9361 L1207.28 43.9361 L1207.28 43.2069 Q1207.28 38.0623 1203.88 35.2672 Q1200.52 32.4315 1194.4 32.4315 Q1190.51 32.4315 1186.83 33.3632 Q1183.14 34.295 1179.74 36.1584 L1179.74 29.2718 Q1183.83 27.692 1187.68 26.9223 Q1191.53 26.1121 1195.17 26.1121 Q1205.02 26.1121 1209.88 31.2163 Q1214.74 36.3204 1214.74 46.6907 Z" fill="#000000" fill-rule="nonzero" fill-opacity="1" /><path clip-path="url(#clip870)" d="M1237.46 14.324 L1237.46 27.2059 L1252.82 27.2059 L1252.82 32.9987 L1237.46 32.9987 L1237.46 57.6282 Q1237.46 63.1779 1238.96 64.7578 Q1240.5 66.3376 1245.16 66.3376 L1252.82 66.3376 L1252.82 72.576 L1245.16 72.576 Q1236.53 72.576 1233.25 69.3758 Q1229.97 66.1351 1229.97 57.6282 L1229.97 32.9987 L1224.5 32.9987 L1224.5 27.2059 L1229.97 27.2059 L1229.97 14.324 L1237.46 14.324 Z" fill="#000000" fill-rule="nonzero" fill-opacity="1" /><path clip-path="url(#clip870)" d="M1301.43 48.0275 L1301.43 51.6733 L1267.16 51.6733 Q1267.64 59.3701 1271.78 63.421 Q1275.95 67.4314 1283.36 67.4314 Q1287.65 67.4314 1291.67 66.3781 Q1295.72 65.3249 1299.69 63.2184 L1299.69 70.267 Q1295.68 71.9684 1291.46 72.8596 Q1287.25 73.7508 1282.92 73.7508 Q1272.06 73.7508 1265.7 67.4314 Q1259.38 61.1119 1259.38 50.3365 Q1259.38 39.1965 1265.37 32.6746 Q1271.41 26.1121 1281.62 26.1121 Q1290.77 26.1121 1296.08 32.0264 Q1301.43 37.9003 1301.43 48.0275 M1293.97 45.84 Q1293.89 39.7232 1290.53 36.0774 Q1287.21 32.4315 1281.7 32.4315 Q1275.46 32.4315 1271.69 35.9558 Q1267.97 39.4801 1267.4 45.8805 L1293.97 45.84 Z" fill="#000000" fill-rule="nonzero" fill-opacity="1" /><path clip-path="url(#clip870)" d="M1339.95 34.1734 Q1338.7 33.4443 1337.2 33.1202 Q1335.74 32.7556 1333.96 32.7556 Q1327.64 32.7556 1324.23 36.8875 Q1320.87 40.9789 1320.87 48.6757 L1320.87 72.576 L1313.38 72.576 L1313.38 27.2059 L1320.87 27.2059 L1320.87 34.2544 Q1323.22 30.1225 1326.99 28.1376 Q1330.76 26.1121 1336.14 26.1121 Q1336.91 26.1121 1337.85 26.2337 Q1338.78 26.3147 1339.91 26.5172 L1339.95 34.1734 Z" fill="#000000" fill-rule="nonzero" fill-opacity="1" /><path clip-path="url(#clip870)" d="M1374.14 9.54393 L1381.6 9.54393 L1381.6 72.576 L1374.14 72.576 L1374.14 9.54393 Z" fill="#000000" fill-rule="nonzero" fill-opacity="1" /><path clip-path="url(#clip870)" d="M1436 48.0275 L1436 51.6733 L1401.73 51.6733 Q1402.21 59.3701 1406.35 63.421 Q1410.52 67.4314 1417.93 67.4314 Q1422.23 67.4314 1426.24 66.3781 Q1430.29 65.3249 1434.26 63.2184 L1434.26 70.267 Q1430.25 71.9684 1426.03 72.8596 Q1421.82 73.7508 1417.49 73.7508 Q1406.63 73.7508 1400.27 67.4314 Q1393.95 61.1119 1393.95 50.3365 Q1393.95 39.1965 1399.95 32.6746 Q1405.98 26.1121 1416.19 26.1121 Q1425.35 26.1121 1430.65 32.0264 Q1436 37.9003 1436 48.0275 M1428.55 45.84 Q1428.46 39.7232 1425.1 36.0774 Q1421.78 32.4315 1416.27 32.4315 Q1410.03 32.4315 1406.27 35.9558 Q1402.54 39.4801 1401.97 45.8805 L1428.55 45.84 Z" fill="#000000" fill-rule="nonzero" fill-opacity="1" /><path clip-path="url(#clip870)" d="M1442.89 27.2059 L1450.78 27.2059 L1464.96 65.2844 L1479.14 27.2059 L1487.04 27.2059 L1470.03 72.576 L1459.9 72.576 L1442.89 27.2059 Z" fill="#000000" fill-rule="nonzero" fill-opacity="1" /><path clip-path="url(#clip870)" d="M1536.14 48.0275 L1536.14 51.6733 L1501.87 51.6733 Q1502.35 59.3701 1506.48 63.421 Q1510.66 67.4314 1518.07 67.4314 Q1522.36 67.4314 1526.37 66.3781 Q1530.43 65.3249 1534.4 63.2184 L1534.4 70.267 Q1530.39 71.9684 1526.17 72.8596 Q1521.96 73.7508 1517.62 73.7508 Q1506.77 73.7508 1500.41 67.4314 Q1494.09 61.1119 1494.09 50.3365 Q1494.09 39.1965 1500.08 32.6746 Q1506.12 26.1121 1516.33 26.1121 Q1525.48 26.1121 1530.79 32.0264 Q1536.14 37.9003 1536.14 48.0275 M1528.68 45.84 Q1528.6 39.7232 1525.24 36.0774 Q1521.92 32.4315 1516.41 32.4315 Q1510.17 32.4315 1506.4 35.9558 Q1502.68 39.4801 1502.11 45.8805 L1528.68 45.84 Z" fill="#000000" fill-rule="nonzero" fill-opacity="1" /><path clip-path="url(#clip870)" d="M1548.37 9.54393 L1555.82 9.54393 L1555.82 72.576 L1548.37 72.576 L1548.37 9.54393 Z" fill="#000000" fill-rule="nonzero" fill-opacity="1" /><path clip-path="url(#clip870)" d="M1600.34 28.5427 L1600.34 35.5912 Q1597.18 33.9709 1593.78 33.1607 Q1590.38 32.3505 1586.73 32.3505 Q1581.18 32.3505 1578.39 34.0519 Q1575.63 35.7533 1575.63 39.156 Q1575.63 41.7486 1577.62 43.2475 Q1579.6 44.7058 1585.6 46.0426 L1588.15 46.6097 Q1596.09 48.3111 1599.41 51.4303 Q1602.77 54.509 1602.77 60.0587 Q1602.77 66.3781 1597.75 70.0644 Q1592.77 73.7508 1584.02 73.7508 Q1580.37 73.7508 1576.4 73.0216 Q1572.47 72.3329 1568.1 70.9151 L1568.1 63.2184 Q1572.23 65.3654 1576.24 66.4591 Q1580.25 67.5124 1584.18 67.5124 Q1589.45 67.5124 1592.28 65.73 Q1595.12 63.9071 1595.12 60.6258 Q1595.12 57.5877 1593.05 55.9673 Q1591.03 54.3469 1584.1 52.8481 L1581.51 52.2405 Q1574.58 50.7821 1571.5 47.7845 Q1568.42 44.7463 1568.42 39.4801 Q1568.42 33.0797 1572.96 29.5959 Q1577.5 26.1121 1585.84 26.1121 Q1589.97 26.1121 1593.62 26.7198 Q1597.27 27.3274 1600.34 28.5427 Z" fill="#000000" fill-rule="nonzero" fill-opacity="1" /><polyline clip-path="url(#clip872)" style="stroke:#009af9; stroke-linecap:round; stroke-linejoin:round; stroke-width:10; stroke-opacity:1; fill:none" points="332.772,1203.05 485.639,1115.93 638.506,950.291 791.373,813.58 944.24,691.966 1097.11,644.641 1249.97,784.405 1402.84,554.918 1555.71,152.247 1708.58,230.669 1861.44,648.977 2014.31,1076.37 "/>
</svg>
