<?xml version="1.0" encoding="utf-8"?>
<svg xmlns="http://www.w3.org/2000/svg" xmlns:xlink="http://www.w3.org/1999/xlink" width="528" height="336" viewBox="0 0 2112 1344">
<defs>
  <clipPath id="clip810">
    <rect x="0" y="0" width="2112" height="1344"/>
  </clipPath>
</defs>
<path clip-path="url(#clip810)" d="M0 1344 L2112 1344 L2112 0 L0 0  Z" fill="#ffffff" fill-rule="evenodd" fill-opacity="1"/>
<defs>
  <clipPath id="clip811">
    <rect x="422" y="0" width="1479" height="1344"/>
  </clipPath>
</defs>
<path clip-path="url(#clip810)" d="M282.326 1234.58 L2064.76 1234.58 L2064.76 120.723 L282.326 120.723  Z" fill="#ffffff" fill-rule="evenodd" fill-opacity="1"/>
<defs>
  <clipPath id="clip812">
    <rect x="282" y="120" width="1783" height="1115"/>
  </clipPath>
</defs>
<polyline clip-path="url(#clip812)" style="stroke:#000000; stroke-linecap:round; stroke-linejoin:round; stroke-width:2; stroke-opacity:0.1; fill:none" points="332.772,1234.58 332.772,120.723 "/>
<polyline clip-path="url(#clip812)" style="stroke:#000000; stroke-linecap:round; stroke-linejoin:round; stroke-width:2; stroke-opacity:0.1; fill:none" points="766.717,1234.58 766.717,120.723 "/>
<polyline clip-path="url(#clip812)" style="stroke:#000000; stroke-linecap:round; stroke-linejoin:round; stroke-width:2; stroke-opacity:0.1; fill:none" points="1200.66,1234.58 1200.66,120.723 "/>
<polyline clip-path="url(#clip812)" style="stroke:#000000; stroke-linecap:round; stroke-linejoin:round; stroke-width:2; stroke-opacity:0.1; fill:none" points="1634.61,1234.58 1634.61,120.723 "/>
<polyline clip-path="url(#clip810)" style="stroke:#000000; stroke-linecap:round; stroke-linejoin:round; stroke-width:4; stroke-opacity:1; fill:none" points="282.326,1234.58 2064.76,1234.58 "/>
<polyline clip-path="url(#clip810)" style="stroke:#000000; stroke-linecap:round; stroke-linejoin:round; stroke-width:4; stroke-opacity:1; fill:none" points="332.772,1234.58 332.772,1215.68 "/>
<polyline clip-path="url(#clip810)" style="stroke:#000000; stroke-linecap:round; stroke-linejoin:round; stroke-width:4; stroke-opacity:1; fill:none" points="766.717,1234.58 766.717,1215.68 "/>
<polyline clip-path="url(#clip810)" style="stroke:#000000; stroke-linecap:round; stroke-linejoin:round; stroke-width:4; stroke-opacity:1; fill:none" points="1200.66,1234.58 1200.66,1215.68 "/>
<polyline clip-path="url(#clip810)" style="stroke:#000000; stroke-linecap:round; stroke-linejoin:round; stroke-width:4; stroke-opacity:1; fill:none" points="1634.61,1234.58 1634.61,1215.68 "/>
<path clip-path="url(#clip810)" d="M204.567 1290.74 L220.886 1290.74 L220.886 1294.67 L198.942 1294.67 L198.942 1290.74 Q201.604 1287.99 206.187 1283.36 Q210.794 1278.7 211.974 1277.36 Q214.219 1274.84 215.099 1273.1 Q216.002 1271.34 216.002 1269.65 Q216.002 1266.9 214.057 1265.16 Q212.136 1263.42 209.034 1263.42 Q206.835 1263.42 204.382 1264.19 Q201.951 1264.95 199.173 1266.5 L199.173 1261.78 Q201.997 1260.65 204.451 1260.07 Q206.905 1259.49 208.942 1259.49 Q214.312 1259.49 217.506 1262.17 Q220.701 1264.86 220.701 1269.35 Q220.701 1271.48 219.891 1273.4 Q219.104 1275.3 216.997 1277.89 Q216.418 1278.56 213.317 1281.78 Q210.215 1284.98 204.567 1290.74 Z" fill="#000000" fill-rule="nonzero" fill-opacity="1" /><path clip-path="url(#clip810)" d="M240.701 1263.19 Q237.09 1263.19 235.261 1266.76 Q233.455 1270.3 233.455 1277.43 Q233.455 1284.54 235.261 1288.1 Q237.09 1291.64 240.701 1291.64 Q244.335 1291.64 246.141 1288.1 Q247.969 1284.54 247.969 1277.43 Q247.969 1270.3 246.141 1266.76 Q244.335 1263.19 240.701 1263.19 M240.701 1259.49 Q246.511 1259.49 249.566 1264.1 Q252.645 1268.68 252.645 1277.43 Q252.645 1286.16 249.566 1290.76 Q246.511 1295.35 240.701 1295.35 Q234.891 1295.35 231.812 1290.76 Q228.756 1286.16 228.756 1277.43 Q228.756 1268.68 231.812 1264.1 Q234.891 1259.49 240.701 1259.49 Z" fill="#000000" fill-rule="nonzero" fill-opacity="1" /><path clip-path="url(#clip810)" d="M264.89 1290.74 L281.21 1290.74 L281.21 1294.67 L259.265 1294.67 L259.265 1290.74 Q261.928 1287.99 266.511 1283.36 Q271.117 1278.7 272.298 1277.36 Q274.543 1274.84 275.423 1273.1 Q276.326 1271.34 276.326 1269.65 Q276.326 1266.9 274.381 1265.16 Q272.46 1263.42 269.358 1263.42 Q267.159 1263.42 264.705 1264.19 Q262.275 1264.95 259.497 1266.5 L259.497 1261.78 Q262.321 1260.65 264.775 1260.07 Q267.228 1259.49 269.265 1259.49 Q274.636 1259.49 277.83 1262.17 Q281.025 1264.86 281.025 1269.35 Q281.025 1271.48 280.214 1273.4 Q279.427 1275.3 277.321 1277.89 Q276.742 1278.56 273.64 1281.78 Q270.539 1284.98 264.89 1290.74 Z" fill="#000000" fill-rule="nonzero" fill-opacity="1" /><path clip-path="url(#clip810)" d="M301.025 1263.19 Q297.413 1263.19 295.585 1266.76 Q293.779 1270.3 293.779 1277.43 Q293.779 1284.54 295.585 1288.1 Q297.413 1291.64 301.025 1291.64 Q304.659 1291.64 306.464 1288.1 Q308.293 1284.54 308.293 1277.43 Q308.293 1270.3 306.464 1266.76 Q304.659 1263.19 301.025 1263.19 M301.025 1259.49 Q306.835 1259.49 309.89 1264.1 Q312.969 1268.68 312.969 1277.43 Q312.969 1286.16 309.89 1290.76 Q306.835 1295.35 301.025 1295.35 Q295.214 1295.35 292.136 1290.76 Q289.08 1286.16 289.08 1277.43 Q289.08 1268.68 292.136 1264.1 Q295.214 1259.49 301.025 1259.49 Z" fill="#000000" fill-rule="nonzero" fill-opacity="1" /><path clip-path="url(#clip810)" d="M318.432 1279.79 L330.909 1279.79 L330.909 1283.59 L318.432 1283.59 L318.432 1279.79 Z" fill="#000000" fill-rule="nonzero" fill-opacity="1" /><path clip-path="url(#clip810)" d="M348.293 1263.19 Q344.682 1263.19 342.853 1266.76 Q341.047 1270.3 341.047 1277.43 Q341.047 1284.54 342.853 1288.1 Q344.682 1291.64 348.293 1291.64 Q351.927 1291.64 353.733 1288.1 Q355.561 1284.54 355.561 1277.43 Q355.561 1270.3 353.733 1266.76 Q351.927 1263.19 348.293 1263.19 M348.293 1259.49 Q354.103 1259.49 357.158 1264.1 Q360.237 1268.68 360.237 1277.43 Q360.237 1286.16 357.158 1290.76 Q354.103 1295.35 348.293 1295.35 Q342.483 1295.35 339.404 1290.76 Q336.348 1286.16 336.348 1277.43 Q336.348 1268.68 339.404 1264.1 Q342.483 1259.49 348.293 1259.49 Z" fill="#000000" fill-rule="nonzero" fill-opacity="1" /><path clip-path="url(#clip810)" d="M382.621 1276.04 Q385.978 1276.76 387.853 1279.03 Q389.751 1281.3 389.751 1284.63 Q389.751 1289.74 386.232 1292.55 Q382.714 1295.35 376.232 1295.35 Q374.057 1295.35 371.742 1294.91 Q369.45 1294.49 366.996 1293.63 L366.996 1289.12 Q368.941 1290.25 371.256 1290.83 Q373.57 1291.41 376.094 1291.41 Q380.492 1291.41 382.783 1289.67 Q385.098 1287.94 385.098 1284.63 Q385.098 1281.57 382.945 1279.86 Q380.816 1278.12 376.996 1278.12 L372.969 1278.12 L372.969 1274.28 L377.182 1274.28 Q380.631 1274.28 382.459 1272.92 Q384.288 1271.53 384.288 1268.93 Q384.288 1266.27 382.39 1264.86 Q380.515 1263.42 376.996 1263.42 Q375.075 1263.42 372.876 1263.84 Q370.677 1264.26 368.038 1265.14 L368.038 1260.97 Q370.7 1260.23 373.015 1259.86 Q375.353 1259.49 377.413 1259.49 Q382.737 1259.49 385.839 1261.92 Q388.941 1264.33 388.941 1268.45 Q388.941 1271.32 387.297 1273.31 Q385.654 1275.28 382.621 1276.04 Z" fill="#000000" fill-rule="nonzero" fill-opacity="1" /><path clip-path="url(#clip810)" d="M395.862 1279.79 L408.339 1279.79 L408.339 1283.59 L395.862 1283.59 L395.862 1279.79 Z" fill="#000000" fill-rule="nonzero" fill-opacity="1" /><path clip-path="url(#clip810)" d="M425.723 1263.19 Q422.112 1263.19 420.283 1266.76 Q418.478 1270.3 418.478 1277.43 Q418.478 1284.54 420.283 1288.1 Q422.112 1291.64 425.723 1291.64 Q429.357 1291.64 431.163 1288.1 Q432.991 1284.54 432.991 1277.43 Q432.991 1270.3 431.163 1266.76 Q429.357 1263.19 425.723 1263.19 M425.723 1259.49 Q431.533 1259.49 434.589 1264.1 Q437.667 1268.68 437.667 1277.43 Q437.667 1286.16 434.589 1290.76 Q431.533 1295.35 425.723 1295.35 Q419.913 1295.35 416.834 1290.76 Q413.779 1286.16 413.779 1277.43 Q413.779 1268.68 416.834 1264.1 Q419.913 1259.49 425.723 1259.49 Z" fill="#000000" fill-rule="nonzero" fill-opacity="1" /><path clip-path="url(#clip810)" d="M446.695 1290.74 L454.334 1290.74 L454.334 1264.37 L446.024 1266.04 L446.024 1261.78 L454.288 1260.11 L458.963 1260.11 L458.963 1290.74 L466.602 1290.74 L466.602 1294.67 L446.695 1294.67 L446.695 1290.74 Z" fill="#000000" fill-rule="nonzero" fill-opacity="1" /><path clip-path="url(#clip810)" d="M637.991 1290.74 L654.31 1290.74 L654.31 1294.67 L632.366 1294.67 L632.366 1290.74 Q635.028 1287.99 639.611 1283.36 Q644.218 1278.7 645.398 1277.36 Q647.644 1274.84 648.523 1273.1 Q649.426 1271.34 649.426 1269.65 Q649.426 1266.9 647.482 1265.16 Q645.561 1263.42 642.459 1263.42 Q640.26 1263.42 637.806 1264.19 Q635.375 1264.95 632.598 1266.5 L632.598 1261.78 Q635.422 1260.65 637.875 1260.07 Q640.329 1259.49 642.366 1259.49 Q647.736 1259.49 650.931 1262.17 Q654.125 1264.86 654.125 1269.35 Q654.125 1271.48 653.315 1273.4 Q652.528 1275.3 650.422 1277.89 Q649.843 1278.56 646.741 1281.78 Q643.639 1284.98 637.991 1290.74 Z" fill="#000000" fill-rule="nonzero" fill-opacity="1" /><path clip-path="url(#clip810)" d="M674.125 1263.19 Q670.514 1263.19 668.685 1266.76 Q666.88 1270.3 666.88 1277.43 Q666.88 1284.54 668.685 1288.1 Q670.514 1291.64 674.125 1291.64 Q677.759 1291.64 679.565 1288.1 Q681.394 1284.54 681.394 1277.43 Q681.394 1270.3 679.565 1266.76 Q677.759 1263.19 674.125 1263.19 M674.125 1259.49 Q679.935 1259.49 682.991 1264.1 Q686.07 1268.68 686.07 1277.43 Q686.07 1286.16 682.991 1290.76 Q679.935 1295.35 674.125 1295.35 Q668.315 1295.35 665.236 1290.76 Q662.181 1286.16 662.181 1277.43 Q662.181 1268.68 665.236 1264.1 Q668.315 1259.49 674.125 1259.49 Z" fill="#000000" fill-rule="nonzero" fill-opacity="1" /><path clip-path="url(#clip810)" d="M698.315 1290.74 L714.634 1290.74 L714.634 1294.67 L692.69 1294.67 L692.69 1290.74 Q695.352 1287.99 699.935 1283.36 Q704.542 1278.7 705.722 1277.36 Q707.968 1274.84 708.847 1273.1 Q709.75 1271.34 709.75 1269.65 Q709.75 1266.9 707.806 1265.16 Q705.884 1263.42 702.782 1263.42 Q700.583 1263.42 698.13 1264.19 Q695.699 1264.95 692.921 1266.5 L692.921 1261.78 Q695.745 1260.65 698.199 1260.07 Q700.653 1259.49 702.69 1259.49 Q708.06 1259.49 711.255 1262.17 Q714.449 1264.86 714.449 1269.35 Q714.449 1271.48 713.639 1273.4 Q712.852 1275.3 710.745 1277.89 Q710.167 1278.56 707.065 1281.78 Q703.963 1284.98 698.315 1290.74 Z" fill="#000000" fill-rule="nonzero" fill-opacity="1" /><path clip-path="url(#clip810)" d="M734.449 1263.19 Q730.838 1263.19 729.009 1266.76 Q727.204 1270.3 727.204 1277.43 Q727.204 1284.54 729.009 1288.1 Q730.838 1291.64 734.449 1291.64 Q738.083 1291.64 739.889 1288.1 Q741.717 1284.54 741.717 1277.43 Q741.717 1270.3 739.889 1266.76 Q738.083 1263.19 734.449 1263.19 M734.449 1259.49 Q740.259 1259.49 743.315 1264.1 Q746.393 1268.68 746.393 1277.43 Q746.393 1286.16 743.315 1290.76 Q740.259 1295.35 734.449 1295.35 Q728.639 1295.35 725.56 1290.76 Q722.505 1286.16 722.505 1277.43 Q722.505 1268.68 725.56 1264.1 Q728.639 1259.49 734.449 1259.49 Z" fill="#000000" fill-rule="nonzero" fill-opacity="1" /><path clip-path="url(#clip810)" d="M751.856 1279.79 L764.333 1279.79 L764.333 1283.59 L751.856 1283.59 L751.856 1279.79 Z" fill="#000000" fill-rule="nonzero" fill-opacity="1" /><path clip-path="url(#clip810)" d="M781.717 1263.19 Q778.106 1263.19 776.277 1266.76 Q774.472 1270.3 774.472 1277.43 Q774.472 1284.54 776.277 1288.1 Q778.106 1291.64 781.717 1291.64 Q785.351 1291.64 787.157 1288.1 Q788.986 1284.54 788.986 1277.43 Q788.986 1270.3 787.157 1266.76 Q785.351 1263.19 781.717 1263.19 M781.717 1259.49 Q787.527 1259.49 790.583 1264.1 Q793.662 1268.68 793.662 1277.43 Q793.662 1286.16 790.583 1290.76 Q787.527 1295.35 781.717 1295.35 Q775.907 1295.35 772.828 1290.76 Q769.773 1286.16 769.773 1277.43 Q769.773 1268.68 772.828 1264.1 Q775.907 1259.49 781.717 1259.49 Z" fill="#000000" fill-rule="nonzero" fill-opacity="1" /><path clip-path="url(#clip810)" d="M816.046 1276.04 Q819.402 1276.76 821.277 1279.03 Q823.175 1281.3 823.175 1284.63 Q823.175 1289.74 819.657 1292.55 Q816.138 1295.35 809.657 1295.35 Q807.481 1295.35 805.166 1294.91 Q802.874 1294.49 800.421 1293.63 L800.421 1289.12 Q802.365 1290.25 804.68 1290.83 Q806.995 1291.41 809.518 1291.41 Q813.916 1291.41 816.208 1289.67 Q818.523 1287.94 818.523 1284.63 Q818.523 1281.57 816.37 1279.86 Q814.24 1278.12 810.421 1278.12 L806.393 1278.12 L806.393 1274.28 L810.606 1274.28 Q814.055 1274.28 815.884 1272.92 Q817.712 1271.53 817.712 1268.93 Q817.712 1266.27 815.814 1264.86 Q813.939 1263.42 810.421 1263.42 Q808.499 1263.42 806.3 1263.84 Q804.101 1264.26 801.462 1265.14 L801.462 1260.97 Q804.124 1260.23 806.439 1259.86 Q808.777 1259.49 810.837 1259.49 Q816.161 1259.49 819.263 1261.92 Q822.365 1264.33 822.365 1268.45 Q822.365 1271.32 820.722 1273.31 Q819.078 1275.28 816.046 1276.04 Z" fill="#000000" fill-rule="nonzero" fill-opacity="1" /><path clip-path="url(#clip810)" d="M829.286 1279.79 L841.763 1279.79 L841.763 1283.59 L829.286 1283.59 L829.286 1279.79 Z" fill="#000000" fill-rule="nonzero" fill-opacity="1" /><path clip-path="url(#clip810)" d="M859.147 1263.19 Q855.536 1263.19 853.708 1266.76 Q851.902 1270.3 851.902 1277.43 Q851.902 1284.54 853.708 1288.1 Q855.536 1291.64 859.147 1291.64 Q862.782 1291.64 864.587 1288.1 Q866.416 1284.54 866.416 1277.43 Q866.416 1270.3 864.587 1266.76 Q862.782 1263.19 859.147 1263.19 M859.147 1259.49 Q864.957 1259.49 868.013 1264.1 Q871.092 1268.68 871.092 1277.43 Q871.092 1286.16 868.013 1290.76 Q864.957 1295.35 859.147 1295.35 Q853.337 1295.35 850.258 1290.76 Q847.203 1286.16 847.203 1277.43 Q847.203 1268.68 850.258 1264.1 Q853.337 1259.49 859.147 1259.49 Z" fill="#000000" fill-rule="nonzero" fill-opacity="1" /><path clip-path="url(#clip810)" d="M879.448 1293.96 L879.448 1289.7 Q881.207 1290.53 883.013 1290.97 Q884.818 1291.41 886.555 1291.41 Q891.184 1291.41 893.615 1288.31 Q896.068 1285.18 896.416 1278.84 Q895.073 1280.83 893.013 1281.9 Q890.953 1282.96 888.453 1282.96 Q883.268 1282.96 880.235 1279.84 Q877.226 1276.69 877.226 1271.25 Q877.226 1265.92 880.374 1262.71 Q883.522 1259.49 888.754 1259.49 Q894.749 1259.49 897.897 1264.1 Q901.068 1268.68 901.068 1277.43 Q901.068 1285.6 897.18 1290.48 Q893.314 1295.35 886.763 1295.35 Q885.004 1295.35 883.198 1295 Q881.393 1294.65 879.448 1293.96 M888.754 1279.3 Q891.902 1279.3 893.73 1277.15 Q895.582 1275 895.582 1271.25 Q895.582 1267.52 893.73 1265.37 Q891.902 1263.19 888.754 1263.19 Q885.606 1263.19 883.754 1265.37 Q881.925 1267.52 881.925 1271.25 Q881.925 1275 883.754 1277.15 Q885.606 1279.3 888.754 1279.3 Z" fill="#000000" fill-rule="nonzero" fill-opacity="1" /><path clip-path="url(#clip810)" d="M1072.3 1290.74 L1088.61 1290.74 L1088.61 1294.67 L1066.67 1294.67 L1066.67 1290.74 Q1069.33 1287.99 1073.92 1283.36 Q1078.52 1278.7 1079.7 1277.36 Q1081.95 1274.84 1082.83 1273.1 Q1083.73 1271.34 1083.73 1269.65 Q1083.73 1266.9 1081.79 1265.16 Q1079.86 1263.42 1076.76 1263.42 Q1074.56 1263.42 1072.11 1264.19 Q1069.68 1264.95 1066.9 1266.5 L1066.9 1261.78 Q1069.73 1260.65 1072.18 1260.07 Q1074.63 1259.49 1076.67 1259.49 Q1082.04 1259.49 1085.23 1262.17 Q1088.43 1264.86 1088.43 1269.35 Q1088.43 1271.48 1087.62 1273.4 Q1086.83 1275.3 1084.73 1277.89 Q1084.15 1278.56 1081.05 1281.78 Q1077.94 1284.98 1072.3 1290.74 Z" fill="#000000" fill-rule="nonzero" fill-opacity="1" /><path clip-path="url(#clip810)" d="M1108.43 1263.19 Q1104.82 1263.19 1102.99 1266.76 Q1101.18 1270.3 1101.18 1277.43 Q1101.18 1284.54 1102.99 1288.1 Q1104.82 1291.64 1108.43 1291.64 Q1112.06 1291.64 1113.87 1288.1 Q1115.7 1284.54 1115.7 1277.43 Q1115.7 1270.3 1113.87 1266.76 Q1112.06 1263.19 1108.43 1263.19 M1108.43 1259.49 Q1114.24 1259.49 1117.29 1264.1 Q1120.37 1268.68 1120.37 1277.43 Q1120.37 1286.16 1117.29 1290.76 Q1114.24 1295.35 1108.43 1295.35 Q1102.62 1295.35 1099.54 1290.76 Q1096.48 1286.16 1096.48 1277.43 Q1096.48 1268.68 1099.54 1264.1 Q1102.62 1259.49 1108.43 1259.49 Z" fill="#000000" fill-rule="nonzero" fill-opacity="1" /><path clip-path="url(#clip810)" d="M1132.62 1290.74 L1148.94 1290.74 L1148.94 1294.67 L1126.99 1294.67 L1126.99 1290.74 Q1129.66 1287.99 1134.24 1283.36 Q1138.85 1278.7 1140.03 1277.36 Q1142.27 1274.84 1143.15 1273.1 Q1144.05 1271.34 1144.05 1269.65 Q1144.05 1266.9 1142.11 1265.16 Q1140.19 1263.42 1137.09 1263.42 Q1134.89 1263.42 1132.43 1264.19 Q1130 1264.95 1127.23 1266.5 L1127.23 1261.78 Q1130.05 1260.65 1132.5 1260.07 Q1134.96 1259.49 1136.99 1259.49 Q1142.36 1259.49 1145.56 1262.17 Q1148.75 1264.86 1148.75 1269.35 Q1148.75 1271.48 1147.94 1273.4 Q1147.16 1275.3 1145.05 1277.89 Q1144.47 1278.56 1141.37 1281.78 Q1138.27 1284.98 1132.62 1290.74 Z" fill="#000000" fill-rule="nonzero" fill-opacity="1" /><path clip-path="url(#clip810)" d="M1168.75 1263.19 Q1165.14 1263.19 1163.31 1266.76 Q1161.51 1270.3 1161.51 1277.43 Q1161.51 1284.54 1163.31 1288.1 Q1165.14 1291.64 1168.75 1291.64 Q1172.39 1291.64 1174.19 1288.1 Q1176.02 1284.54 1176.02 1277.43 Q1176.02 1270.3 1174.19 1266.76 Q1172.39 1263.19 1168.75 1263.19 M1168.75 1259.49 Q1174.56 1259.49 1177.62 1264.1 Q1180.7 1268.68 1180.7 1277.43 Q1180.7 1286.16 1177.62 1290.76 Q1174.56 1295.35 1168.75 1295.35 Q1162.94 1295.35 1159.86 1290.76 Q1156.81 1286.16 1156.81 1277.43 Q1156.81 1268.68 1159.86 1264.1 Q1162.94 1259.49 1168.75 1259.49 Z" fill="#000000" fill-rule="nonzero" fill-opacity="1" /><path clip-path="url(#clip810)" d="M1186.16 1279.79 L1198.64 1279.79 L1198.64 1283.59 L1186.16 1283.59 L1186.16 1279.79 Z" fill="#000000" fill-rule="nonzero" fill-opacity="1" /><path clip-path="url(#clip810)" d="M1216.02 1263.19 Q1212.41 1263.19 1210.58 1266.76 Q1208.78 1270.3 1208.78 1277.43 Q1208.78 1284.54 1210.58 1288.1 Q1212.41 1291.64 1216.02 1291.64 Q1219.66 1291.64 1221.46 1288.1 Q1223.29 1284.54 1223.29 1277.43 Q1223.29 1270.3 1221.46 1266.76 Q1219.66 1263.19 1216.02 1263.19 M1216.02 1259.49 Q1221.83 1259.49 1224.89 1264.1 Q1227.97 1268.68 1227.97 1277.43 Q1227.97 1286.16 1224.89 1290.76 Q1221.83 1295.35 1216.02 1295.35 Q1210.21 1295.35 1207.13 1290.76 Q1204.08 1286.16 1204.08 1277.43 Q1204.08 1268.68 1207.13 1264.1 Q1210.21 1259.49 1216.02 1259.49 Z" fill="#000000" fill-rule="nonzero" fill-opacity="1" /><path clip-path="url(#clip810)" d="M1250.35 1276.04 Q1253.71 1276.76 1255.58 1279.03 Q1257.48 1281.3 1257.48 1284.63 Q1257.48 1289.74 1253.96 1292.55 Q1250.44 1295.35 1243.96 1295.35 Q1241.78 1295.35 1239.47 1294.91 Q1237.18 1294.49 1234.72 1293.63 L1234.72 1289.12 Q1236.67 1290.25 1238.98 1290.83 Q1241.3 1291.41 1243.82 1291.41 Q1248.22 1291.41 1250.51 1289.67 Q1252.83 1287.94 1252.83 1284.63 Q1252.83 1281.57 1250.67 1279.86 Q1248.54 1278.12 1244.72 1278.12 L1240.7 1278.12 L1240.7 1274.28 L1244.91 1274.28 Q1248.36 1274.28 1250.19 1272.92 Q1252.02 1271.53 1252.02 1268.93 Q1252.02 1266.27 1250.12 1264.86 Q1248.24 1263.42 1244.72 1263.42 Q1242.8 1263.42 1240.6 1263.84 Q1238.41 1264.26 1235.77 1265.14 L1235.77 1260.97 Q1238.43 1260.23 1240.74 1259.86 Q1243.08 1259.49 1245.14 1259.49 Q1250.47 1259.49 1253.57 1261.92 Q1256.67 1264.33 1256.67 1268.45 Q1256.67 1271.32 1255.03 1273.31 Q1253.38 1275.28 1250.35 1276.04 Z" fill="#000000" fill-rule="nonzero" fill-opacity="1" /><path clip-path="url(#clip810)" d="M1263.59 1279.79 L1276.07 1279.79 L1276.07 1283.59 L1263.59 1283.59 L1263.59 1279.79 Z" fill="#000000" fill-rule="nonzero" fill-opacity="1" /><path clip-path="url(#clip810)" d="M1284.26 1290.74 L1291.9 1290.74 L1291.9 1264.37 L1283.59 1266.04 L1283.59 1261.78 L1291.85 1260.11 L1296.53 1260.11 L1296.53 1290.74 L1304.17 1290.74 L1304.17 1294.67 L1284.26 1294.67 L1284.26 1290.74 Z" fill="#000000" fill-rule="nonzero" fill-opacity="1" /><path clip-path="url(#clip810)" d="M1312.43 1260.11 L1334.65 1260.11 L1334.65 1262.11 L1322.11 1294.67 L1317.22 1294.67 L1329.03 1264.05 L1312.43 1264.05 L1312.43 1260.11 Z" fill="#000000" fill-rule="nonzero" fill-opacity="1" /><path clip-path="url(#clip810)" d="M1506.29 1290.74 L1522.61 1290.74 L1522.61 1294.67 L1500.66 1294.67 L1500.66 1290.74 Q1503.32 1287.99 1507.91 1283.36 Q1512.51 1278.7 1513.69 1277.36 Q1515.94 1274.84 1516.82 1273.1 Q1517.72 1271.34 1517.72 1269.65 Q1517.72 1266.9 1515.78 1265.16 Q1513.86 1263.42 1510.75 1263.42 Q1508.56 1263.42 1506.1 1264.19 Q1503.67 1264.95 1500.89 1266.5 L1500.89 1261.78 Q1503.72 1260.65 1506.17 1260.07 Q1508.62 1259.49 1510.66 1259.49 Q1516.03 1259.49 1519.23 1262.17 Q1522.42 1264.86 1522.42 1269.35 Q1522.42 1271.48 1521.61 1273.4 Q1520.82 1275.3 1518.72 1277.89 Q1518.14 1278.56 1515.04 1281.78 Q1511.93 1284.98 1506.29 1290.74 Z" fill="#000000" fill-rule="nonzero" fill-opacity="1" /><path clip-path="url(#clip810)" d="M1542.42 1263.19 Q1538.81 1263.19 1536.98 1266.76 Q1535.18 1270.3 1535.18 1277.43 Q1535.18 1284.54 1536.98 1288.1 Q1538.81 1291.64 1542.42 1291.64 Q1546.05 1291.64 1547.86 1288.1 Q1549.69 1284.54 1549.69 1277.43 Q1549.69 1270.3 1547.86 1266.76 Q1546.05 1263.19 1542.42 1263.19 M1542.42 1259.49 Q1548.23 1259.49 1551.29 1264.1 Q1554.37 1268.68 1554.37 1277.43 Q1554.37 1286.16 1551.29 1290.76 Q1548.23 1295.35 1542.42 1295.35 Q1536.61 1295.35 1533.53 1290.76 Q1530.48 1286.16 1530.48 1277.43 Q1530.48 1268.68 1533.53 1264.1 Q1536.61 1259.49 1542.42 1259.49 Z" fill="#000000" fill-rule="nonzero" fill-opacity="1" /><path clip-path="url(#clip810)" d="M1566.61 1290.74 L1582.93 1290.74 L1582.93 1294.67 L1560.99 1294.67 L1560.99 1290.74 Q1563.65 1287.99 1568.23 1283.36 Q1572.84 1278.7 1574.02 1277.36 Q1576.26 1274.84 1577.14 1273.1 Q1578.05 1271.34 1578.05 1269.65 Q1578.05 1266.9 1576.1 1265.16 Q1574.18 1263.42 1571.08 1263.42 Q1568.88 1263.42 1566.43 1264.19 Q1563.99 1264.95 1561.22 1266.5 L1561.22 1261.78 Q1564.04 1260.65 1566.49 1260.07 Q1568.95 1259.49 1570.99 1259.49 Q1576.36 1259.49 1579.55 1262.17 Q1582.74 1264.86 1582.74 1269.35 Q1582.74 1271.48 1581.93 1273.4 Q1581.15 1275.3 1579.04 1277.89 Q1578.46 1278.56 1575.36 1281.78 Q1572.26 1284.98 1566.61 1290.74 Z" fill="#000000" fill-rule="nonzero" fill-opacity="1" /><path clip-path="url(#clip810)" d="M1602.74 1263.19 Q1599.13 1263.19 1597.3 1266.76 Q1595.5 1270.3 1595.5 1277.43 Q1595.5 1284.54 1597.3 1288.1 Q1599.13 1291.64 1602.74 1291.64 Q1606.38 1291.64 1608.18 1288.1 Q1610.01 1284.54 1610.01 1277.43 Q1610.01 1270.3 1608.18 1266.76 Q1606.38 1263.19 1602.74 1263.19 M1602.74 1259.49 Q1608.55 1259.49 1611.61 1264.1 Q1614.69 1268.68 1614.69 1277.43 Q1614.69 1286.16 1611.61 1290.76 Q1608.55 1295.35 1602.74 1295.35 Q1596.93 1295.35 1593.86 1290.76 Q1590.8 1286.16 1590.8 1277.43 Q1590.8 1268.68 1593.86 1264.1 Q1596.93 1259.49 1602.74 1259.49 Z" fill="#000000" fill-rule="nonzero" fill-opacity="1" /><path clip-path="url(#clip810)" d="M1620.15 1279.79 L1632.63 1279.79 L1632.63 1283.59 L1620.15 1283.59 L1620.15 1279.79 Z" fill="#000000" fill-rule="nonzero" fill-opacity="1" /><path clip-path="url(#clip810)" d="M1650.01 1263.19 Q1646.4 1263.19 1644.57 1266.76 Q1642.77 1270.3 1642.77 1277.43 Q1642.77 1284.54 1644.57 1288.1 Q1646.4 1291.64 1650.01 1291.64 Q1653.65 1291.64 1655.45 1288.1 Q1657.28 1284.54 1657.28 1277.43 Q1657.28 1270.3 1655.45 1266.76 Q1653.65 1263.19 1650.01 1263.19 M1650.01 1259.49 Q1655.82 1259.49 1658.88 1264.1 Q1661.96 1268.68 1661.96 1277.43 Q1661.96 1286.16 1658.88 1290.76 Q1655.82 1295.35 1650.01 1295.35 Q1644.2 1295.35 1641.12 1290.76 Q1638.07 1286.16 1638.07 1277.43 Q1638.07 1268.68 1641.12 1264.1 Q1644.2 1259.49 1650.01 1259.49 Z" fill="#000000" fill-rule="nonzero" fill-opacity="1" /><path clip-path="url(#clip810)" d="M1684.34 1276.04 Q1687.7 1276.76 1689.57 1279.03 Q1691.47 1281.3 1691.47 1284.63 Q1691.47 1289.74 1687.95 1292.55 Q1684.43 1295.35 1677.95 1295.35 Q1675.78 1295.35 1673.46 1294.91 Q1671.17 1294.49 1668.72 1293.63 L1668.72 1289.12 Q1670.66 1290.25 1672.98 1290.83 Q1675.29 1291.41 1677.81 1291.41 Q1682.21 1291.41 1684.5 1289.67 Q1686.82 1287.94 1686.82 1284.63 Q1686.82 1281.57 1684.67 1279.86 Q1682.54 1278.12 1678.72 1278.12 L1674.69 1278.12 L1674.69 1274.28 L1678.9 1274.28 Q1682.35 1274.28 1684.18 1272.92 Q1686.01 1271.53 1686.01 1268.93 Q1686.01 1266.27 1684.11 1264.86 Q1682.23 1263.42 1678.72 1263.42 Q1676.79 1263.42 1674.6 1263.84 Q1672.4 1264.26 1669.76 1265.14 L1669.76 1260.97 Q1672.42 1260.23 1674.73 1259.86 Q1677.07 1259.49 1679.13 1259.49 Q1684.46 1259.49 1687.56 1261.92 Q1690.66 1264.33 1690.66 1268.45 Q1690.66 1271.32 1689.02 1273.31 Q1687.37 1275.28 1684.34 1276.04 Z" fill="#000000" fill-rule="nonzero" fill-opacity="1" /><path clip-path="url(#clip810)" d="M1697.58 1279.79 L1710.06 1279.79 L1710.06 1283.59 L1697.58 1283.59 L1697.58 1279.79 Z" fill="#000000" fill-rule="nonzero" fill-opacity="1" /><path clip-path="url(#clip810)" d="M1721.47 1290.74 L1737.79 1290.74 L1737.79 1294.67 L1715.85 1294.67 L1715.85 1290.74 Q1718.51 1287.99 1723.09 1283.36 Q1727.7 1278.7 1728.88 1277.36 Q1731.12 1274.84 1732 1273.1 Q1732.91 1271.34 1732.91 1269.65 Q1732.91 1266.9 1730.96 1265.16 Q1729.04 1263.42 1725.94 1263.42 Q1723.74 1263.42 1721.29 1264.19 Q1718.85 1264.95 1716.08 1266.5 L1716.08 1261.78 Q1718.9 1260.65 1721.35 1260.07 Q1723.81 1259.49 1725.85 1259.49 Q1731.22 1259.49 1734.41 1262.17 Q1737.6 1264.86 1737.6 1269.35 Q1737.6 1271.48 1736.79 1273.4 Q1736.01 1275.3 1733.9 1277.89 Q1733.32 1278.56 1730.22 1281.78 Q1727.12 1284.98 1721.47 1290.74 Z" fill="#000000" fill-rule="nonzero" fill-opacity="1" /><path clip-path="url(#clip810)" d="M1747.65 1260.11 L1766.01 1260.11 L1766.01 1264.05 L1751.93 1264.05 L1751.93 1272.52 Q1752.95 1272.17 1753.97 1272.01 Q1754.99 1271.83 1756.01 1271.83 Q1761.79 1271.83 1765.17 1275 Q1768.55 1278.17 1768.55 1283.59 Q1768.55 1289.17 1765.08 1292.27 Q1761.61 1295.35 1755.29 1295.35 Q1753.11 1295.35 1750.85 1294.98 Q1748.6 1294.61 1746.19 1293.86 L1746.19 1289.17 Q1748.28 1290.3 1750.5 1290.86 Q1752.72 1291.41 1755.2 1291.41 Q1759.2 1291.41 1761.54 1289.3 Q1763.88 1287.2 1763.88 1283.59 Q1763.88 1279.98 1761.54 1277.87 Q1759.2 1275.76 1755.2 1275.76 Q1753.32 1275.76 1751.45 1276.18 Q1749.6 1276.6 1747.65 1277.48 L1747.65 1260.11 Z" fill="#000000" fill-rule="nonzero" fill-opacity="1" /><polyline clip-path="url(#clip812)" style="stroke:#000000; stroke-linecap:round; stroke-linejoin:round; stroke-width:2; stroke-opacity:0.1; fill:none" points="282.326,1192.78 2064.76,1192.78 "/>
<polyline clip-path="url(#clip812)" style="stroke:#000000; stroke-linecap:round; stroke-linejoin:round; stroke-width:2; stroke-opacity:0.1; fill:none" points="282.326,1032.2 2064.76,1032.2 "/>
<polyline clip-path="url(#clip812)" style="stroke:#000000; stroke-linecap:round; stroke-linejoin:round; stroke-width:2; stroke-opacity:0.1; fill:none" points="282.326,871.626 2064.76,871.626 "/>
<polyline clip-path="url(#clip812)" style="stroke:#000000; stroke-linecap:round; stroke-linejoin:round; stroke-width:2; stroke-opacity:0.1; fill:none" points="282.326,711.051 2064.76,711.051 "/>
<polyline clip-path="url(#clip812)" style="stroke:#000000; stroke-linecap:round; stroke-linejoin:round; stroke-width:2; stroke-opacity:0.1; fill:none" points="282.326,550.475 2064.76,550.475 "/>
<polyline clip-path="url(#clip812)" style="stroke:#000000; stroke-linecap:round; stroke-linejoin:round; stroke-width:2; stroke-opacity:0.1; fill:none" points="282.326,389.899 2064.76,389.899 "/>
<polyline clip-path="url(#clip812)" style="stroke:#000000; stroke-linecap:round; stroke-linejoin:round; stroke-width:2; stroke-opacity:0.1; fill:none" points="282.326,229.324 2064.76,229.324 "/>
<polyline clip-path="url(#clip810)" style="stroke:#000000; stroke-linecap:round; stroke-linejoin:round; stroke-width:4; stroke-opacity:1; fill:none" points="282.326,1234.58 282.326,120.723 "/>
<polyline clip-path="url(#clip810)" style="stroke:#000000; stroke-linecap:round; stroke-linejoin:round; stroke-width:4; stroke-opacity:1; fill:none" points="282.326,1192.78 301.224,1192.78 "/>
<polyline clip-path="url(#clip810)" style="stroke:#000000; stroke-linecap:round; stroke-linejoin:round; stroke-width:4; stroke-opacity:1; fill:none" points="282.326,1032.2 301.224,1032.2 "/>
<polyline clip-path="url(#clip810)" style="stroke:#000000; stroke-linecap:round; stroke-linejoin:round; stroke-width:4; stroke-opacity:1; fill:none" points="282.326,871.626 301.224,871.626 "/>
<polyline clip-path="url(#clip810)" style="stroke:#000000; stroke-linecap:round; stroke-linejoin:round; stroke-width:4; stroke-opacity:1; fill:none" points="282.326,711.051 301.224,711.051 "/>
<polyline clip-path="url(#clip810)" style="stroke:#000000; stroke-linecap:round; stroke-linejoin:round; stroke-width:4; stroke-opacity:1; fill:none" points="282.326,550.475 301.224,550.475 "/>
<polyline clip-path="url(#clip810)" style="stroke:#000000; stroke-linecap:round; stroke-linejoin:round; stroke-width:4; stroke-opacity:1; fill:none" points="282.326,389.899 301.224,389.899 "/>
<polyline clip-path="url(#clip810)" style="stroke:#000000; stroke-linecap:round; stroke-linejoin:round; stroke-width:4; stroke-opacity:1; fill:none" points="282.326,229.324 301.224,229.324 "/>
<path clip-path="url(#clip810)" d="M114.536 1193.23 L144.211 1193.23 L144.211 1197.16 L114.536 1197.16 L114.536 1193.23 Z" fill="#000000" fill-rule="nonzero" fill-opacity="1" /><path clip-path="url(#clip810)" d="M164.304 1178.58 Q160.693 1178.58 158.864 1182.14 Q157.058 1185.68 157.058 1192.81 Q157.058 1199.92 158.864 1203.48 Q160.693 1207.03 164.304 1207.03 Q167.938 1207.03 169.744 1203.48 Q171.572 1199.92 171.572 1192.81 Q171.572 1185.68 169.744 1182.14 Q167.938 1178.58 164.304 1178.58 M164.304 1174.87 Q170.114 1174.87 173.169 1179.48 Q176.248 1184.06 176.248 1192.81 Q176.248 1201.54 173.169 1206.15 Q170.114 1210.73 164.304 1210.73 Q158.494 1210.73 155.415 1206.15 Q152.359 1201.54 152.359 1192.81 Q152.359 1184.06 155.415 1179.48 Q158.494 1174.87 164.304 1174.87 Z" fill="#000000" fill-rule="nonzero" fill-opacity="1" /><path clip-path="url(#clip810)" d="M184.466 1204.18 L189.35 1204.18 L189.35 1210.06 L184.466 1210.06 L184.466 1204.18 Z" fill="#000000" fill-rule="nonzero" fill-opacity="1" /><path clip-path="url(#clip810)" d="M198.355 1175.5 L220.577 1175.5 L220.577 1177.49 L208.03 1210.06 L203.146 1210.06 L214.952 1179.43 L198.355 1179.43 L198.355 1175.5 Z" fill="#000000" fill-rule="nonzero" fill-opacity="1" /><path clip-path="url(#clip810)" d="M229.743 1175.5 L248.1 1175.5 L248.1 1179.43 L234.026 1179.43 L234.026 1187.91 Q235.044 1187.56 236.063 1187.4 Q237.081 1187.21 238.1 1187.21 Q243.887 1187.21 247.266 1190.38 Q250.646 1193.55 250.646 1198.97 Q250.646 1204.55 247.174 1207.65 Q243.701 1210.73 237.382 1210.73 Q235.206 1210.73 232.938 1210.36 Q230.692 1209.99 228.285 1209.25 L228.285 1204.55 Q230.368 1205.68 232.59 1206.24 Q234.813 1206.79 237.289 1206.79 Q241.294 1206.79 243.632 1204.69 Q245.97 1202.58 245.97 1198.97 Q245.97 1195.36 243.632 1193.25 Q241.294 1191.15 237.289 1191.15 Q235.415 1191.15 233.54 1191.56 Q231.688 1191.98 229.743 1192.86 L229.743 1175.5 Z" fill="#000000" fill-rule="nonzero" fill-opacity="1" /><path clip-path="url(#clip810)" d="M113.54 1032.65 L143.216 1032.65 L143.216 1036.59 L113.54 1036.59 L113.54 1032.65 Z" fill="#000000" fill-rule="nonzero" fill-opacity="1" /><path clip-path="url(#clip810)" d="M163.308 1018 Q159.697 1018 157.869 1021.57 Q156.063 1025.11 156.063 1032.24 Q156.063 1039.34 157.869 1042.91 Q159.697 1046.45 163.308 1046.45 Q166.943 1046.45 168.748 1042.91 Q170.577 1039.34 170.577 1032.24 Q170.577 1025.11 168.748 1021.57 Q166.943 1018 163.308 1018 M163.308 1014.3 Q169.119 1014.3 172.174 1018.9 Q175.253 1023.49 175.253 1032.24 Q175.253 1040.96 172.174 1045.57 Q169.119 1050.15 163.308 1050.15 Q157.498 1050.15 154.42 1045.57 Q151.364 1040.96 151.364 1032.24 Q151.364 1023.49 154.42 1018.9 Q157.498 1014.3 163.308 1014.3 Z" fill="#000000" fill-rule="nonzero" fill-opacity="1" /><path clip-path="url(#clip810)" d="M183.47 1043.6 L188.355 1043.6 L188.355 1049.48 L183.47 1049.48 L183.47 1043.6 Z" fill="#000000" fill-rule="nonzero" fill-opacity="1" /><path clip-path="url(#clip810)" d="M198.586 1014.92 L216.942 1014.92 L216.942 1018.86 L202.868 1018.86 L202.868 1027.33 Q203.887 1026.98 204.905 1026.82 Q205.924 1026.63 206.942 1026.63 Q212.729 1026.63 216.109 1029.81 Q219.489 1032.98 219.489 1038.39 Q219.489 1043.97 216.016 1047.07 Q212.544 1050.15 206.225 1050.15 Q204.049 1050.15 201.78 1049.78 Q199.535 1049.41 197.128 1048.67 L197.128 1043.97 Q199.211 1045.11 201.433 1045.66 Q203.655 1046.22 206.132 1046.22 Q210.137 1046.22 212.475 1044.11 Q214.813 1042.01 214.813 1038.39 Q214.813 1034.78 212.475 1032.68 Q210.137 1030.57 206.132 1030.57 Q204.257 1030.57 202.382 1030.99 Q200.53 1031.4 198.586 1032.28 L198.586 1014.92 Z" fill="#000000" fill-rule="nonzero" fill-opacity="1" /><path clip-path="url(#clip810)" d="M238.702 1018 Q235.09 1018 233.262 1021.57 Q231.456 1025.11 231.456 1032.24 Q231.456 1039.34 233.262 1042.91 Q235.09 1046.45 238.702 1046.45 Q242.336 1046.45 244.141 1042.91 Q245.97 1039.34 245.97 1032.24 Q245.97 1025.11 244.141 1021.57 Q242.336 1018 238.702 1018 M238.702 1014.3 Q244.512 1014.3 247.567 1018.9 Q250.646 1023.49 250.646 1032.24 Q250.646 1040.96 247.567 1045.57 Q244.512 1050.15 238.702 1050.15 Q232.891 1050.15 229.813 1045.57 Q226.757 1040.96 226.757 1032.24 Q226.757 1023.49 229.813 1018.9 Q232.891 1014.3 238.702 1014.3 Z" fill="#000000" fill-rule="nonzero" fill-opacity="1" /><path clip-path="url(#clip810)" d="M114.536 872.078 L144.211 872.078 L144.211 876.013 L114.536 876.013 L114.536 872.078 Z" fill="#000000" fill-rule="nonzero" fill-opacity="1" /><path clip-path="url(#clip810)" d="M164.304 857.425 Q160.693 857.425 158.864 860.99 Q157.058 864.531 157.058 871.661 Q157.058 878.768 158.864 882.332 Q160.693 885.874 164.304 885.874 Q167.938 885.874 169.744 882.332 Q171.572 878.768 171.572 871.661 Q171.572 864.531 169.744 860.99 Q167.938 857.425 164.304 857.425 M164.304 853.721 Q170.114 853.721 173.169 858.328 Q176.248 862.911 176.248 871.661 Q176.248 880.388 173.169 884.994 Q170.114 889.578 164.304 889.578 Q158.494 889.578 155.415 884.994 Q152.359 880.388 152.359 871.661 Q152.359 862.911 155.415 858.328 Q158.494 853.721 164.304 853.721 Z" fill="#000000" fill-rule="nonzero" fill-opacity="1" /><path clip-path="url(#clip810)" d="M184.466 883.027 L189.35 883.027 L189.35 888.906 L184.466 888.906 L184.466 883.027 Z" fill="#000000" fill-rule="nonzero" fill-opacity="1" /><path clip-path="url(#clip810)" d="M203.563 884.971 L219.882 884.971 L219.882 888.906 L197.938 888.906 L197.938 884.971 Q200.6 882.217 205.183 877.587 Q209.79 872.934 210.97 871.592 Q213.216 869.068 214.095 867.332 Q214.998 865.573 214.998 863.883 Q214.998 861.129 213.054 859.393 Q211.132 857.657 208.03 857.657 Q205.831 857.657 203.378 858.42 Q200.947 859.184 198.169 860.735 L198.169 856.013 Q200.993 854.879 203.447 854.3 Q205.901 853.721 207.938 853.721 Q213.308 853.721 216.503 856.407 Q219.697 859.092 219.697 863.582 Q219.697 865.712 218.887 867.633 Q218.1 869.531 215.993 872.124 Q215.415 872.795 212.313 876.013 Q209.211 879.207 203.563 884.971 Z" fill="#000000" fill-rule="nonzero" fill-opacity="1" /><path clip-path="url(#clip810)" d="M229.743 854.346 L248.1 854.346 L248.1 858.282 L234.026 858.282 L234.026 866.754 Q235.044 866.406 236.063 866.244 Q237.081 866.059 238.1 866.059 Q243.887 866.059 247.266 869.231 Q250.646 872.402 250.646 877.818 Q250.646 883.397 247.174 886.499 Q243.701 889.578 237.382 889.578 Q235.206 889.578 232.938 889.207 Q230.692 888.837 228.285 888.096 L228.285 883.397 Q230.368 884.531 232.59 885.087 Q234.813 885.642 237.289 885.642 Q241.294 885.642 243.632 883.536 Q245.97 881.43 245.97 877.818 Q245.97 874.207 243.632 872.101 Q241.294 869.994 237.289 869.994 Q235.415 869.994 233.54 870.411 Q231.688 870.828 229.743 871.707 L229.743 854.346 Z" fill="#000000" fill-rule="nonzero" fill-opacity="1" /><path clip-path="url(#clip810)" d="M163.308 696.849 Q159.697 696.849 157.869 700.414 Q156.063 703.956 156.063 711.085 Q156.063 718.192 157.869 721.757 Q159.697 725.298 163.308 725.298 Q166.943 725.298 168.748 721.757 Q170.577 718.192 170.577 711.085 Q170.577 703.956 168.748 700.414 Q166.943 696.849 163.308 696.849 M163.308 693.146 Q169.119 693.146 172.174 697.752 Q175.253 702.335 175.253 711.085 Q175.253 719.812 172.174 724.419 Q169.119 729.002 163.308 729.002 Q157.498 729.002 154.42 724.419 Q151.364 719.812 151.364 711.085 Q151.364 702.335 154.42 697.752 Q157.498 693.146 163.308 693.146 Z" fill="#000000" fill-rule="nonzero" fill-opacity="1" /><path clip-path="url(#clip810)" d="M183.47 722.451 L188.355 722.451 L188.355 728.331 L183.47 728.331 L183.47 722.451 Z" fill="#000000" fill-rule="nonzero" fill-opacity="1" /><path clip-path="url(#clip810)" d="M208.54 696.849 Q204.929 696.849 203.1 700.414 Q201.294 703.956 201.294 711.085 Q201.294 718.192 203.1 721.757 Q204.929 725.298 208.54 725.298 Q212.174 725.298 213.979 721.757 Q215.808 718.192 215.808 711.085 Q215.808 703.956 213.979 700.414 Q212.174 696.849 208.54 696.849 M208.54 693.146 Q214.35 693.146 217.405 697.752 Q220.484 702.335 220.484 711.085 Q220.484 719.812 217.405 724.419 Q214.35 729.002 208.54 729.002 Q202.729 729.002 199.651 724.419 Q196.595 719.812 196.595 711.085 Q196.595 702.335 199.651 697.752 Q202.729 693.146 208.54 693.146 Z" fill="#000000" fill-rule="nonzero" fill-opacity="1" /><path clip-path="url(#clip810)" d="M238.702 696.849 Q235.09 696.849 233.262 700.414 Q231.456 703.956 231.456 711.085 Q231.456 718.192 233.262 721.757 Q235.09 725.298 238.702 725.298 Q242.336 725.298 244.141 721.757 Q245.97 718.192 245.97 711.085 Q245.97 703.956 244.141 700.414 Q242.336 696.849 238.702 696.849 M238.702 693.146 Q244.512 693.146 247.567 697.752 Q250.646 702.335 250.646 711.085 Q250.646 719.812 247.567 724.419 Q244.512 729.002 238.702 729.002 Q232.891 729.002 229.813 724.419 Q226.757 719.812 226.757 711.085 Q226.757 702.335 229.813 697.752 Q232.891 693.146 238.702 693.146 Z" fill="#000000" fill-rule="nonzero" fill-opacity="1" /><path clip-path="url(#clip810)" d="M164.304 536.274 Q160.693 536.274 158.864 539.838 Q157.058 543.38 157.058 550.51 Q157.058 557.616 158.864 561.181 Q160.693 564.723 164.304 564.723 Q167.938 564.723 169.744 561.181 Q171.572 557.616 171.572 550.51 Q171.572 543.38 169.744 539.838 Q167.938 536.274 164.304 536.274 M164.304 532.57 Q170.114 532.57 173.169 537.176 Q176.248 541.76 176.248 550.51 Q176.248 559.236 173.169 563.843 Q170.114 568.426 164.304 568.426 Q158.494 568.426 155.415 563.843 Q152.359 559.236 152.359 550.51 Q152.359 541.76 155.415 537.176 Q158.494 532.57 164.304 532.57 Z" fill="#000000" fill-rule="nonzero" fill-opacity="1" /><path clip-path="url(#clip810)" d="M184.466 561.875 L189.35 561.875 L189.35 567.755 L184.466 567.755 L184.466 561.875 Z" fill="#000000" fill-rule="nonzero" fill-opacity="1" /><path clip-path="url(#clip810)" d="M203.563 563.82 L219.882 563.82 L219.882 567.755 L197.938 567.755 L197.938 563.82 Q200.6 561.065 205.183 556.436 Q209.79 551.783 210.97 550.44 Q213.216 547.917 214.095 546.181 Q214.998 544.422 214.998 542.732 Q214.998 539.977 213.054 538.241 Q211.132 536.505 208.03 536.505 Q205.831 536.505 203.378 537.269 Q200.947 538.033 198.169 539.584 L198.169 534.862 Q200.993 533.727 203.447 533.149 Q205.901 532.57 207.938 532.57 Q213.308 532.57 216.503 535.255 Q219.697 537.94 219.697 542.431 Q219.697 544.561 218.887 546.482 Q218.1 548.38 215.993 550.973 Q215.415 551.644 212.313 554.862 Q209.211 558.056 203.563 563.82 Z" fill="#000000" fill-rule="nonzero" fill-opacity="1" /><path clip-path="url(#clip810)" d="M229.743 533.195 L248.1 533.195 L248.1 537.13 L234.026 537.13 L234.026 545.602 Q235.044 545.255 236.063 545.093 Q237.081 544.908 238.1 544.908 Q243.887 544.908 247.266 548.079 Q250.646 551.25 250.646 556.667 Q250.646 562.246 247.174 565.348 Q243.701 568.426 237.382 568.426 Q235.206 568.426 232.938 568.056 Q230.692 567.686 228.285 566.945 L228.285 562.246 Q230.368 563.38 232.59 563.936 Q234.813 564.491 237.289 564.491 Q241.294 564.491 243.632 562.385 Q245.97 560.278 245.97 556.667 Q245.97 553.056 243.632 550.949 Q241.294 548.843 237.289 548.843 Q235.415 548.843 233.54 549.26 Q231.688 549.676 229.743 550.556 L229.743 533.195 Z" fill="#000000" fill-rule="nonzero" fill-opacity="1" /><path clip-path="url(#clip810)" d="M163.308 375.698 Q159.697 375.698 157.869 379.263 Q156.063 382.804 156.063 389.934 Q156.063 397.04 157.869 400.605 Q159.697 404.147 163.308 404.147 Q166.943 404.147 168.748 400.605 Q170.577 397.04 170.577 389.934 Q170.577 382.804 168.748 379.263 Q166.943 375.698 163.308 375.698 M163.308 371.994 Q169.119 371.994 172.174 376.601 Q175.253 381.184 175.253 389.934 Q175.253 398.661 172.174 403.267 Q169.119 407.851 163.308 407.851 Q157.498 407.851 154.42 403.267 Q151.364 398.661 151.364 389.934 Q151.364 381.184 154.42 376.601 Q157.498 371.994 163.308 371.994 Z" fill="#000000" fill-rule="nonzero" fill-opacity="1" /><path clip-path="url(#clip810)" d="M183.47 401.3 L188.355 401.3 L188.355 407.179 L183.47 407.179 L183.47 401.3 Z" fill="#000000" fill-rule="nonzero" fill-opacity="1" /><path clip-path="url(#clip810)" d="M198.586 372.619 L216.942 372.619 L216.942 376.554 L202.868 376.554 L202.868 385.027 Q203.887 384.679 204.905 384.517 Q205.924 384.332 206.942 384.332 Q212.729 384.332 216.109 387.503 Q219.489 390.675 219.489 396.091 Q219.489 401.67 216.016 404.772 Q212.544 407.851 206.225 407.851 Q204.049 407.851 201.78 407.48 Q199.535 407.11 197.128 406.369 L197.128 401.67 Q199.211 402.804 201.433 403.36 Q203.655 403.915 206.132 403.915 Q210.137 403.915 212.475 401.809 Q214.813 399.702 214.813 396.091 Q214.813 392.48 212.475 390.374 Q210.137 388.267 206.132 388.267 Q204.257 388.267 202.382 388.684 Q200.53 389.101 198.586 389.98 L198.586 372.619 Z" fill="#000000" fill-rule="nonzero" fill-opacity="1" /><path clip-path="url(#clip810)" d="M238.702 375.698 Q235.09 375.698 233.262 379.263 Q231.456 382.804 231.456 389.934 Q231.456 397.04 233.262 400.605 Q235.09 404.147 238.702 404.147 Q242.336 404.147 244.141 400.605 Q245.97 397.04 245.97 389.934 Q245.97 382.804 244.141 379.263 Q242.336 375.698 238.702 375.698 M238.702 371.994 Q244.512 371.994 247.567 376.601 Q250.646 381.184 250.646 389.934 Q250.646 398.661 247.567 403.267 Q244.512 407.851 238.702 407.851 Q232.891 407.851 229.813 403.267 Q226.757 398.661 226.757 389.934 Q226.757 381.184 229.813 376.601 Q232.891 371.994 238.702 371.994 Z" fill="#000000" fill-rule="nonzero" fill-opacity="1" /><path clip-path="url(#clip810)" d="M164.304 215.122 Q160.693 215.122 158.864 218.687 Q157.058 222.229 157.058 229.358 Q157.058 236.465 158.864 240.03 Q160.693 243.571 164.304 243.571 Q167.938 243.571 169.744 240.03 Q171.572 236.465 171.572 229.358 Q171.572 222.229 169.744 218.687 Q167.938 215.122 164.304 215.122 M164.304 211.419 Q170.114 211.419 173.169 216.025 Q176.248 220.608 176.248 229.358 Q176.248 238.085 173.169 242.692 Q170.114 247.275 164.304 247.275 Q158.494 247.275 155.415 242.692 Q152.359 238.085 152.359 229.358 Q152.359 220.608 155.415 216.025 Q158.494 211.419 164.304 211.419 Z" fill="#000000" fill-rule="nonzero" fill-opacity="1" /><path clip-path="url(#clip810)" d="M184.466 240.724 L189.35 240.724 L189.35 246.604 L184.466 246.604 L184.466 240.724 Z" fill="#000000" fill-rule="nonzero" fill-opacity="1" /><path clip-path="url(#clip810)" d="M198.355 212.044 L220.577 212.044 L220.577 214.034 L208.03 246.604 L203.146 246.604 L214.952 215.979 L198.355 215.979 L198.355 212.044 Z" fill="#000000" fill-rule="nonzero" fill-opacity="1" /><path clip-path="url(#clip810)" d="M229.743 212.044 L248.1 212.044 L248.1 215.979 L234.026 215.979 L234.026 224.451 Q235.044 224.104 236.063 223.942 Q237.081 223.756 238.1 223.756 Q243.887 223.756 247.266 226.928 Q250.646 230.099 250.646 235.516 Q250.646 241.094 247.174 244.196 Q243.701 247.275 237.382 247.275 Q235.206 247.275 232.938 246.905 Q230.692 246.534 228.285 245.793 L228.285 241.094 Q230.368 242.229 232.59 242.784 Q234.813 243.34 237.289 243.34 Q241.294 243.34 243.632 241.233 Q245.97 239.127 245.97 235.516 Q245.97 231.905 243.632 229.798 Q241.294 227.692 237.289 227.692 Q235.415 227.692 233.54 228.108 Q231.688 228.525 229.743 229.405 L229.743 212.044 Z" fill="#000000" fill-rule="nonzero" fill-opacity="1" /><path clip-path="url(#clip810)" d="M38.7993 675.693 Q34.8526 673.497 32.9747 670.442 Q31.0968 667.386 31.0968 663.248 Q31.0968 657.679 35.0117 654.655 Q38.8948 651.631 46.0881 651.631 L67.6042 651.631 L67.6042 657.519 L46.279 657.519 Q41.1546 657.519 38.672 659.334 Q36.1894 661.148 36.1894 664.872 Q36.1894 669.423 39.2131 672.065 Q42.2368 674.707 47.4567 674.707 L67.6042 674.707 L67.6042 680.595 L46.279 680.595 Q41.1228 680.595 38.672 682.409 Q36.1894 684.224 36.1894 688.011 Q36.1894 692.499 39.2449 695.141 Q42.2686 697.782 47.4567 697.782 L67.6042 697.782 L67.6042 703.671 L31.9562 703.671 L31.9562 697.782 L37.4944 697.782 Q34.216 695.777 32.6564 692.976 Q31.0968 690.175 31.0968 686.324 Q31.0968 682.441 33.0702 679.736 Q35.0436 676.998 38.7993 675.693 Z" fill="#000000" fill-rule="nonzero" fill-opacity="1" /><path clip-path="url(#clip810)" d="M920.886 12.096 L929.15 12.096 L941.87 63.2184 L954.549 12.096 L963.745 12.096 L976.464 63.2184 L989.144 12.096 L997.448 12.096 L982.257 72.576 L971.968 72.576 L959.208 20.0763 L946.326 72.576 L936.036 72.576 L920.886 12.096 Z" fill="#000000" fill-rule="nonzero" fill-opacity="1" /><path clip-path="url(#clip810)" d="M1023.29 49.7694 Q1014.26 49.7694 1010.78 51.8354 Q1007.29 53.9013 1007.29 58.8839 Q1007.29 62.8538 1009.88 65.2034 Q1012.52 67.5124 1017.01 67.5124 Q1023.21 67.5124 1026.94 63.1374 Q1030.71 58.7219 1030.71 51.4303 L1030.71 49.7694 L1023.29 49.7694 M1038.16 46.6907 L1038.16 72.576 L1030.71 72.576 L1030.71 65.6895 Q1028.15 69.8214 1024.35 71.8063 Q1020.54 73.7508 1015.03 73.7508 Q1008.06 73.7508 1003.93 69.8619 Q999.838 65.9325 999.838 59.3701 Q999.838 51.7138 1004.94 47.825 Q1010.09 43.9361 1020.25 43.9361 L1030.71 43.9361 L1030.71 43.2069 Q1030.71 38.0623 1027.3 35.2672 Q1023.94 32.4315 1017.82 32.4315 Q1013.94 32.4315 1010.25 33.3632 Q1006.56 34.295 1003.16 36.1584 L1003.16 29.2718 Q1007.25 27.692 1011.1 26.9223 Q1014.95 26.1121 1018.59 26.1121 Q1028.44 26.1121 1033.3 31.2163 Q1038.16 36.3204 1038.16 46.6907 Z" fill="#000000" fill-rule="nonzero" fill-opacity="1" /><path clip-path="url(#clip810)" d="M1060.89 14.324 L1060.89 27.2059 L1076.24 27.2059 L1076.24 32.9987 L1060.89 32.9987 L1060.89 57.6282 Q1060.89 63.1779 1062.38 64.7578 Q1063.92 66.3376 1068.58 66.3376 L1076.24 66.3376 L1076.24 72.576 L1068.58 72.576 Q1059.95 72.576 1056.67 69.3758 Q1053.39 66.1351 1053.39 57.6282 L1053.39 32.9987 L1047.92 32.9987 L1047.92 27.2059 L1053.39 27.2059 L1053.39 14.324 L1060.89 14.324 Z" fill="#000000" fill-rule="nonzero" fill-opacity="1" /><path clip-path="url(#clip810)" d="M1124.85 48.0275 L1124.85 51.6733 L1090.58 51.6733 Q1091.06 59.3701 1095.2 63.421 Q1099.37 67.4314 1106.78 67.4314 Q1111.08 67.4314 1115.09 66.3781 Q1119.14 65.3249 1123.11 63.2184 L1123.11 70.267 Q1119.1 71.9684 1114.88 72.8596 Q1110.67 73.7508 1106.34 73.7508 Q1095.48 73.7508 1089.12 67.4314 Q1082.8 61.1119 1082.8 50.3365 Q1082.8 39.1965 1088.8 32.6746 Q1094.83 26.1121 1105.04 26.1121 Q1114.2 26.1121 1119.5 32.0264 Q1124.85 37.9003 1124.85 48.0275 M1117.4 45.84 Q1117.31 39.7232 1113.95 36.0774 Q1110.63 32.4315 1105.12 32.4315 Q1098.88 32.4315 1095.12 35.9558 Q1091.39 39.4801 1090.82 45.8805 L1117.4 45.84 Z" fill="#000000" fill-rule="nonzero" fill-opacity="1" /><path clip-path="url(#clip810)" d="M1163.37 34.1734 Q1162.12 33.4443 1160.62 33.1202 Q1159.16 32.7556 1157.38 32.7556 Q1151.06 32.7556 1147.66 36.8875 Q1144.29 40.9789 1144.29 48.6757 L1144.29 72.576 L1136.8 72.576 L1136.8 27.2059 L1144.29 27.2059 L1144.29 34.2544 Q1146.64 30.1225 1150.41 28.1376 Q1154.18 26.1121 1159.57 26.1121 Q1160.33 26.1121 1161.27 26.2337 Q1162.2 26.3147 1163.33 26.5172 L1163.37 34.1734 Z" fill="#000000" fill-rule="nonzero" fill-opacity="1" /><path clip-path="url(#clip810)" d="M1197.56 9.54393 L1205.02 9.54393 L1205.02 72.576 L1197.56 72.576 L1197.56 9.54393 Z" fill="#000000" fill-rule="nonzero" fill-opacity="1" /><path clip-path="url(#clip810)" d="M1259.42 48.0275 L1259.42 51.6733 L1225.15 51.6733 Q1225.64 59.3701 1229.77 63.421 Q1233.94 67.4314 1241.35 67.4314 Q1245.65 67.4314 1249.66 66.3781 Q1253.71 65.3249 1257.68 63.2184 L1257.68 70.267 Q1253.67 71.9684 1249.45 72.8596 Q1245.24 73.7508 1240.91 73.7508 Q1230.05 73.7508 1223.69 67.4314 Q1217.37 61.1119 1217.37 50.3365 Q1217.37 39.1965 1223.37 32.6746 Q1229.4 26.1121 1239.61 26.1121 Q1248.77 26.1121 1254.07 32.0264 Q1259.42 37.9003 1259.42 48.0275 M1251.97 45.84 Q1251.89 39.7232 1248.52 36.0774 Q1245.2 32.4315 1239.69 32.4315 Q1233.45 32.4315 1229.69 35.9558 Q1225.96 39.4801 1225.39 45.8805 L1251.97 45.84 Z" fill="#000000" fill-rule="nonzero" fill-opacity="1" /><path clip-path="url(#clip810)" d="M1266.31 27.2059 L1274.21 27.2059 L1288.38 65.2844 L1302.56 27.2059 L1310.46 27.2059 L1293.45 72.576 L1283.32 72.576 L1266.31 27.2059 Z" fill="#000000" fill-rule="nonzero" fill-opacity="1" /><path clip-path="url(#clip810)" d="M1359.56 48.0275 L1359.56 51.6733 L1325.29 51.6733 Q1325.77 59.3701 1329.91 63.421 Q1334.08 67.4314 1341.49 67.4314 Q1345.79 67.4314 1349.8 66.3781 Q1353.85 65.3249 1357.82 63.2184 L1357.82 70.267 Q1353.81 71.9684 1349.59 72.8596 Q1345.38 73.7508 1341.05 73.7508 Q1330.19 73.7508 1323.83 67.4314 Q1317.51 61.1119 1317.51 50.3365 Q1317.51 39.1965 1323.51 32.6746 Q1329.54 26.1121 1339.75 26.1121 Q1348.9 26.1121 1354.21 32.0264 Q1359.56 37.9003 1359.56 48.0275 M1352.1 45.84 Q1352.02 39.7232 1348.66 36.0774 Q1345.34 32.4315 1339.83 32.4315 Q1333.59 32.4315 1329.82 35.9558 Q1326.1 39.4801 1325.53 45.8805 L1352.1 45.84 Z" fill="#000000" fill-rule="nonzero" fill-opacity="1" /><path clip-path="url(#clip810)" d="M1371.79 9.54393 L1379.25 9.54393 L1379.25 72.576 L1371.79 72.576 L1371.79 9.54393 Z" fill="#000000" fill-rule="nonzero" fill-opacity="1" /><path clip-path="url(#clip810)" d="M1423.77 28.5427 L1423.77 35.5912 Q1420.61 33.9709 1417.2 33.1607 Q1413.8 32.3505 1410.15 32.3505 Q1404.6 32.3505 1401.81 34.0519 Q1399.05 35.7533 1399.05 39.156 Q1399.05 41.7486 1401.04 43.2475 Q1403.02 44.7058 1409.02 46.0426 L1411.57 46.6097 Q1419.51 48.3111 1422.83 51.4303 Q1426.2 54.509 1426.2 60.0587 Q1426.2 66.3781 1421.17 70.0644 Q1416.19 73.7508 1407.44 73.7508 Q1403.79 73.7508 1399.82 73.0216 Q1395.9 72.3329 1391.52 70.9151 L1391.52 63.2184 Q1395.65 65.3654 1399.66 66.4591 Q1403.67 67.5124 1407.6 67.5124 Q1412.87 67.5124 1415.7 65.73 Q1418.54 63.9071 1418.54 60.6258 Q1418.54 57.5877 1416.47 55.9673 Q1414.45 54.3469 1407.52 52.8481 L1404.93 52.2405 Q1398 50.7821 1394.92 47.7845 Q1391.84 44.7463 1391.84 39.4801 Q1391.84 33.0797 1396.38 29.5959 Q1400.92 26.1121 1409.26 26.1121 Q1413.39 26.1121 1417.04 26.7198 Q1420.69 27.3274 1423.77 28.5427 Z" fill="#000000" fill-rule="nonzero" fill-opacity="1" /><polyline clip-path="url(#clip812)" style="stroke:#009af9; stroke-linecap:round; stroke-linejoin:round; stroke-width:4; stroke-opacity:1; fill:none" points="332.772,1005.23 335.032,1000.73 337.292,937.784 339.552,832.446 341.813,732.247 344.073,631.405 346.333,611.494 348.593,624.982 350.853,686.643 353.113,769.5 355.373,846.577 357.633,912.734 359.894,944.849 362.154,928.791 364.414,878.692 366.674,818.315 368.934,743.808 371.194,668.659 373.454,626.267 375.715,638.47 377.975,691.782 380.235,786.842 382.495,870.342 384.755,936.499 387.015,960.906 389.275,940.995 391.535,888.326 393.796,829.234 396.056,752.8 398.316,680.862 400.576,617.917 402.836,612.778 405.096,646.178 407.356,705.27 409.617,781.704 411.877,852.357 414.137,905.026 416.397,912.091 418.657,895.392 420.917,849.788 423.177,776.566 425.437,702.058 427.698,642.324 429.958,611.494 432.218,639.113 434.478,691.139 436.738,779.135 438.998,844.65 441.258,890.895 443.518,928.149 445.779,919.799 448.039,880.619 450.299,824.738 452.559,739.312 454.819,658.382 457.079,621.771 459.339,614.705 461.6,639.755 463.86,696.278 466.12,763.719 468.38,841.438 470.64,885.757 472.9,896.034 475.16,879.976 477.42,838.227 479.681,768.858 481.941,677.651 484.201,627.551 486.461,601.217 488.721,637.828 490.981,713.62 493.241,807.396 495.501,855.569 497.762,906.311 500.022,926.864 502.282,897.961 504.542,860.065 506.802,788.127 509.062,697.562 511.322,612.136 513.583,543.41 515.843,517.075 518.103,547.906 520.363,596.078 522.623,680.22 524.883,768.858 527.143,851.073 529.403,874.838 531.664,872.269 533.924,827.307 536.184,754.727 538.444,682.147 540.704,622.413 542.964,608.282 545.224,622.413 547.485,680.22 549.745,758.581 552.005,855.569 554.265,928.149 556.525,961.549 558.785,941.637 561.045,882.545 563.305,810.608 565.566,707.839 567.826,632.69 570.086,565.248 572.346,530.564 574.606,525.425 576.866,571.029 579.126,637.828 581.386,723.254 583.647,804.827 585.907,864.561 588.167,883.83 590.427,864.561 592.687,802.9 594.947,721.327 597.207,663.52 599.468,628.194 601.728,623.697 603.988,652.601 606.248,727.108 608.508,822.811 610.768,915.303 613.028,970.541 615.288,962.191 617.549,885.757 619.809,784.915 622.069,673.155 624.329,540.84 626.589,460.553 628.849,445.137 631.109,465.049 633.37,528.637 635.63,631.405 637.89,754.085 640.15,832.446 642.41,880.619 644.67,870.984 646.93,826.023 649.19,738.67 651.451,614.063 653.711,491.383 655.971,436.787 658.231,428.437 660.491,486.245 662.751,592.867 665.011,716.189 667.271,811.892 669.532,851.715 671.792,853.642 674.052,783.631 676.312,648.105 678.572,499.733 680.832,378.338 683.092,297.408 685.353,255.016 687.613,260.796 689.873,323.1 692.133,427.795 694.393,569.102 696.653,698.847 698.913,779.135 701.173,802.9 703.434,736.1 705.694,643.609 707.954,514.506 710.214,409.168 712.474,355.215 714.734,375.126 716.994,443.853 719.255,560.752 721.515,710.408 723.775,844.65 726.035,924.937 728.295,928.149 730.555,856.853 732.815,715.547 735.075,553.044 737.336,416.234 739.596,318.604 741.856,279.423 744.116,315.392 746.376,410.453 748.636,553.044 750.896,714.262 753.156,841.438 755.417,895.392 757.677,881.903 759.937,797.119 762.197,670.586 764.457,511.937 766.717,394.395 768.977,341.084 771.238,376.411 773.498,481.106 775.758,641.04 778.018,804.827 780.278,930.718 782.538,998.802 784.798,1004.58 787.058,919.799 789.319,788.769 791.579,622.413 793.839,471.472 796.099,393.753 798.359,397.607 800.619,466.333 802.879,596.721 805.139,760.508 807.4,920.441 809.66,1025.14 811.92,1066.89 814.18,1028.35 816.44,935.857 818.7,780.419 820.96,629.478 823.221,520.929 825.481,491.383 827.741,534.417 830.001,651.316 832.261,808.038 834.521,972.468 836.781,1099.64 839.041,1174.79 841.302,1165.16 843.562,1077.81 845.822,910.807 848.082,738.027 850.342,599.29 852.602,522.214 854.862,524.783 857.123,592.225 859.383,724.539 861.643,900.53 863.903,1052.11 866.163,1154.88 868.423,1203.05 870.683,1152.31 872.943,1008.44 875.204,826.665 877.464,677.009 879.724,569.102 881.984,539.556 884.244,561.394 886.504,651.316 888.764,825.381 891.024,980.818 893.285,1095.79 895.545,1156.17 897.805,1098.36 900.065,979.533 902.325,800.331 904.585,626.909 906.845,504.871 909.106,443.853 911.366,450.918 913.626,529.921 915.886,664.805 918.146,824.096 920.406,961.549 922.666,1043.12 924.926,1049.54 927.187,953.841 929.447,792.623 931.707,626.267 933.967,479.179 936.227,375.769 938.487,344.296 940.747,393.111 943.008,500.375 945.268,666.089 947.528,824.738 949.788,940.995 952.048,983.387 954.308,943.564 956.568,838.227 958.828,673.155 961.089,524.141 963.349,397.607 965.609,338.515 967.869,375.769 970.129,456.056 972.389,611.494 974.649,754.727 976.909,880.619 979.17,940.353 981.43,917.872 983.69,818.315 985.95,665.447 988.21,505.514 990.47,369.346 992.73,298.692 994.991,283.919 997.251,340.442 999.511,447.064 1001.77,605.713 1004.03,773.996 1006.29,872.911 1008.55,917.23 1010.81,878.049 1013.07,800.973 1015.33,657.74 1017.59,528.637 1019.85,427.795 1022.11,391.826 1024.37,425.868 1026.63,508.725 1028.89,644.251 1031.15,788.127 1033.41,888.326 1035.67,932.645 1037.93,899.888 1040.19,802.258 1042.45,668.659 1044.71,517.075 1046.97,389.899 1049.23,308.969 1051.49,320.531 1053.75,386.688 1056.01,516.433 1058.27,655.17 1060.53,775.281 1062.79,856.853 1065.05,890.895 1067.31,863.919 1069.57,781.704 1071.83,668.659 1074.1,557.54 1076.36,481.749 1078.62,468.903 1080.88,527.352 1083.14,629.478 1085.4,757.939 1087.66,880.619 1089.92,957.053 1092.18,980.818 1094.44,960.906 1096.7,890.253 1098.96,779.777 1101.22,635.259 1103.48,522.856 1105.74,465.691 1108,481.749 1110.26,529.279 1112.52,623.697 1114.78,721.97 1117.04,801.615 1119.3,864.561 1121.56,897.961 1123.82,878.049 1126.08,799.688 1128.34,703.985 1130.6,580.021 1132.86,517.075 1135.12,508.083 1137.38,547.263 1139.64,631.405 1141.9,732.889 1144.16,835.015 1146.42,896.034 1148.68,917.872 1150.94,901.172 1153.2,835.015 1155.46,726.466 1157.72,608.925 1159.98,520.929 1162.24,470.187 1164.5,478.537 1166.76,511.937 1169.02,589.013 1171.28,698.205 1173.54,793.908 1175.8,847.219 1178.06,844.007 1180.32,809.323 1182.58,742.523 1184.84,657.74 1187.1,565.248 1189.36,513.864 1191.62,486.887 1193.88,504.871 1196.14,559.467 1198.4,635.259 1200.66,721.327 1202.92,795.835 1205.18,837.584 1207.44,813.177 1209.7,750.873 1211.96,635.901 1214.22,511.294 1216.48,424.584 1218.74,393.753 1221,393.111 1223.26,427.795 1225.52,498.448 1227.78,587.729 1230.04,689.212 1232.3,765.646 1234.56,795.835 1236.82,773.354 1239.08,717.474 1241.34,624.34 1243.6,533.775 1245.87,481.106 1248.13,469.545 1250.39,493.31 1252.65,547.906 1254.91,633.974 1257.17,716.831 1259.43,784.915 1261.69,823.454 1263.95,813.819 1266.21,746.377 1268.47,639.755 1270.73,521.571 1272.99,436.787 1275.25,369.346 1277.51,368.703 1279.77,414.949 1282.03,490.099 1284.29,577.452 1286.55,663.52 1288.81,736.743 1291.07,775.281 1293.33,781.062 1295.59,734.816 1297.85,664.163 1300.11,604.428 1302.37,562.036 1304.63,552.402 1306.89,553.686 1309.15,600.575 1311.41,693.066 1313.67,801.615 1315.93,892.18 1318.19,926.222 1320.45,900.53 1322.71,840.154 1324.97,736.1 1327.23,641.682 1329.49,558.183 1331.75,511.294 1334.01,506.156 1336.27,560.752 1338.53,630.763 1340.79,739.954 1343.05,844.65 1345.31,910.807 1347.57,920.441 1349.83,887.684 1352.09,828.592 1354.35,736.1 1356.61,644.893 1358.87,571.671 1361.13,533.775 1363.39,549.19 1365.65,620.486 1367.91,720.043 1370.17,822.169 1372.43,900.53 1374.69,933.287 1376.95,919.799 1379.21,852.357 1381.47,756.654 1383.73,653.243 1385.99,577.452 1388.25,534.417 1390.51,535.702 1392.77,584.517 1395.03,671.228 1397.29,788.769 1399.55,887.684 1401.81,952.556 1404.07,980.176 1406.33,944.849 1408.59,879.334 1410.85,793.265 1413.11,693.066 1415.37,614.705 1417.64,583.232 1419.9,610.851 1422.16,692.424 1424.42,802.9 1426.68,911.449 1428.94,998.802 1431.2,1021.28 1433.46,1005.87 1435.72,935.214 1437.98,822.169 1440.24,691.782 1442.5,597.363 1444.76,544.052 1447.02,535.702 1449.28,532.49 1451.54,591.582 1453.8,703.985 1456.06,808.038 1458.32,863.919 1460.58,872.269 1462.84,832.446 1465.1,750.231 1467.36,650.032 1469.62,562.036 1471.88,504.871 1474.14,501.66 1476.4,556.898 1478.66,651.959 1480.92,772.069 1483.18,884.472 1485.44,964.118 1487.7,991.737 1489.96,967.972 1492.22,878.049 1494.48,750.873 1496.74,634.617 1499,528.637 1501.26,479.179 1503.52,491.383 1505.78,549.19 1508.04,648.105 1510.3,759.866 1512.56,851.715 1514.82,892.822 1517.08,874.196 1519.34,808.681 1521.6,698.205 1523.86,559.467 1526.12,447.064 1528.38,373.199 1530.64,377.696 1532.9,423.299 1535.16,510.652 1537.42,595.436 1539.68,669.943 1541.94,714.904 1544.2,698.847 1546.46,603.786 1548.72,499.733 1550.98,388.615 1553.24,310.254 1555.5,239.6 1557.76,254.373 1560.02,317.319 1562.28,434.218 1564.54,577.452 1566.8,701.416 1569.06,799.688 1571.32,820.884 1573.58,773.996 1575.84,680.862 1578.1,583.875 1580.36,454.13 1582.62,368.061 1584.88,355.857 1587.14,398.892 1589.41,493.952 1591.67,593.509 1593.93,720.685 1596.19,811.25 1598.45,858.138 1600.71,826.665 1602.97,732.247 1605.23,599.932 1607.49,470.829 1609.75,380.265 1612.01,346.865 1614.27,373.199 1616.53,432.934 1618.79,538.271 1621.05,666.089 1623.31,772.712 1625.57,836.942 1627.83,837.584 1630.09,750.873 1632.35,633.332 1634.61,524.141 1636.87,431.649 1639.13,389.899 1641.39,398.892 1643.65,435.503 1645.91,537.629 1648.17,651.959 1650.43,761.15 1652.69,822.811 1654.95,799.688 1657.21,723.254 1659.47,594.152 1661.73,458.626 1663.99,332.092 1666.25,237.674 1668.51,219.047 1670.77,249.235 1673.03,302.546 1675.29,405.957 1677.55,526.067 1679.81,603.786 1682.07,627.551 1684.33,577.452 1686.59,483.675 1688.85,391.826 1691.11,269.789 1693.37,181.793 1695.63,152.247 1697.89,177.939 1700.15,262.723 1702.41,368.061 1704.67,506.156 1706.93,622.413 1709.19,684.716 1711.45,689.212 1713.71,637.186 1715.97,539.556 1718.23,441.283 1720.49,348.792 1722.75,305.758 1725.01,314.108 1727.27,391.184 1729.53,494.595 1731.79,624.34 1734.05,731.604 1736.31,790.054 1738.57,769.5 1740.83,705.27 1743.09,596.078 1745.35,468.903 1747.61,360.996 1749.87,319.888 1752.13,325.027 1754.39,393.753 1756.65,508.083 1758.91,614.063 1761.18,744.45 1763.44,811.892 1765.7,849.146 1767.96,799.046 1770.22,714.904 1772.48,606.355 1774.74,482.391 1777,383.476 1779.26,376.411 1781.52,401.461 1783.78,472.756 1786.04,583.875 1788.3,680.862 1790.56,759.866 1792.82,773.354 1795.08,734.816 1797.34,636.544 1799.6,506.798 1801.86,394.395 1804.12,314.108 1806.38,290.985 1808.64,328.238 1810.9,411.095 1813.16,506.156 1815.42,626.267 1817.68,732.889 1819.94,783.631 1822.2,763.719 1824.46,714.262 1826.72,623.055 1828.98,525.425 1831.24,413.664 1833.5,387.33 1835.76,391.826 1838.02,477.252 1840.28,567.175 1842.54,668.016 1844.8,769.5 1847.06,840.154 1849.32,811.25 1851.58,726.466 1853.84,631.405 1856.1,514.506 1858.36,413.664 1860.62,352.646 1862.88,356.5 1865.14,382.192 1867.4,461.837 1869.66,568.459 1871.92,690.497 1874.18,770.143 1876.44,785.558 1878.7,757.296 1880.96,687.285 1883.22,605.713 1885.48,507.441 1887.74,440.641 1890,423.299 1892.26,430.364 1894.52,492.025 1896.78,588.371 1899.04,683.432 1901.3,757.939 1903.56,767.573 1905.82,737.385 1908.08,668.659 1910.34,569.744 1912.6,477.252 1914.86,400.176 1917.12,364.849 1919.38,365.492 1921.64,390.542 1923.9,462.479 1926.16,560.752 1928.42,637.828 1930.68,677.009 1932.95,687.928 1935.21,671.228 1937.47,623.055 1939.73,542.125 1941.99,467.618 1944.25,421.372 1946.51,416.876 1948.77,452.845 1951.03,522.856 1953.29,606.355 1955.55,691.782 1957.81,746.377 1960.07,763.077 1962.33,723.897 1964.59,654.528 1966.85,538.271 1969.11,389.257 1971.37,294.838 1973.63,276.854 1975.89,301.261 1978.15,358.426 1980.41,470.829 1982.67,565.248 1984.93,651.316 1987.19,704.628 1989.45,698.205 1991.71,661.593 1993.97,600.575 1996.23,524.783 1998.49,446.422 2000.75,387.972 2003.01,380.265 2005.27,411.095 2007.53,462.479 2009.79,522.214 2012.05,553.686 2014.31,590.298 "/>
</svg>
